<?xml version="1.0"?><svg fill="#000000" xmlns="http://www.w3.org/2000/svg"  viewBox="0 0 24 24" width="24px" height="24px">    <path d="M 5 3 C 3.9 3 3 3.9 3 5 L 3 19 C 3 20.1 3.9 21 5 21 L 19 21 C 20.1 21 21 20.1 21 19 L 21 5 C 21 3.9 20.1 3 19 3 L 5 3 z M 7.7285156 8 L 9.5878906 8 C 11.913891 8 12.193359 10.140469 12.193359 10.605469 C 12.193359 12.465469 10.891641 13.115234 9.6816406 13.115234 L 8.5644531 13.115234 L 8.5644531 15.068359 C 8.5644531 15.530359 8.1905156 15.90625 7.7285156 15.90625 C 7.2665156 15.90625 6.890625 15.530359 6.890625 15.068359 L 6.890625 8.8378906 C 6.890625 8.3758906 7.2665156 8 7.7285156 8 z M 8.5644531 9.3027344 L 8.5644531 11.814453 L 9.6816406 11.814453 C 10.425641 11.814453 10.611328 11.256469 10.611328 10.605469 C 10.612328 9.9534687 10.333641 9.3027344 9.6816406 9.3027344 L 8.5644531 9.3027344 z M 15.169922 9.953125 C 15.995922 9.953125 16.593359 10.245266 16.943359 10.697266 C 17.295359 11.151266 16.966578 11.8125 16.392578 11.8125 L 16.296875 11.8125 C 16.026875 11.8125 15.759063 11.665109 15.664062 11.412109 C 15.581062 11.192109 15.417922 11.068359 15.169922 11.068359 C 14.890922 11.068359 14.611328 11.254953 14.611328 11.626953 C 14.611328 12.556953 17.308594 12.277219 17.308594 14.324219 C 17.308594 15.721219 15.913922 16 15.169922 16 C 14.284922 16 13.663688 15.637437 13.304688 15.148438 C 12.968687 14.691437 13.296281 14.046875 13.863281 14.046875 C 14.131281 14.046875 14.392188 14.190453 14.492188 14.439453 C 14.646187 14.825453 15.023922 14.882813 15.169922 14.882812 C 15.541922 14.882812 15.820313 14.696219 15.820312 14.324219 C 15.820312 13.487219 13.121094 13.581703 13.121094 11.720703 C 13.121094 10.325703 14.424922 9.953125 15.169922 9.953125 z"/></svg>