<?xml version="1.0" encoding="utf-8"?>
<!-- Generator: Adobe Illustrator 24.1.2, SVG Export Plug-In . SVG Version: 6.00 Build 0)  -->
<svg version="1.1" xmlns="http://www.w3.org/2000/svg" xmlns:xlink="http://www.w3.org/1999/xlink" x="0px" y="0px"
	 viewBox="0 0 685.33 408.89" style="enable-background:new 0 0 685.33 408.89;" xml:space="preserve">
<style type="text/css">
	.st0{fill:#F5F5F5;}
	.st1{fill:#E0E0E0;}
	.st2{fill:#EBEBEB;}
	.st3{display:none;}
	.st4{display:inline;fill:#EBEBEB;}
	.st5{fill:#666666;}
	.st6{opacity:0.8;}
	.st7{fill:#FFBE9D;}
	.st8{opacity:0.6;}
	.st9{fill:#FFFFFF;}
	.st10{fill:#263238;}
	.st11{fill:#455A64;}
	.st12{fill:#333333;}
	.st13{fill:#FAFAFA;}
	.st14{fill:none;stroke:#4E585D;stroke-width:0.05;stroke-miterlimit:10;}
	.st15{fill:#999999;}
	.st16{fill:#CCCCCC;}
	.st17{opacity:0.4;}
	.st18{fill:#EB996E;}
	.st19{fill:none;}
</style>
<g id="Background_Complete">
	<g>
		<g>
			<g>
				<path class="st0" d="M148.58,381.65c0.45-3.24-4.13-5.91-7.56-6.18c-1.64-0.13-3.34,0.12-4.89-0.42
					c-3.36-1.17-4.71-5.52-7.99-6.9c-2.45-1.03-5.28-0.11-7.66,1.08s-4.73,2.7-7.39,2.87c-2.31,0.15-4.82-0.71-6.84,0.42
					c-1.51,0.84-2.3,2.58-3.69,3.6c-1.36,1-3.13,1.21-4.82,1.31c-1.69,0.09-3.43,0.11-4.97,0.81c-1.54,0.7-2.81,2.33-2.49,3.99
					L148.58,381.65z"/>
			</g>
		</g>
	</g>
	<g>
		<g>
			<g>
				<path class="st0" d="M617.86,95.26c0.73-5.33-6.79-9.72-12.44-10.17c-2.7-0.22-5.5,0.19-8.05-0.7
					c-5.53-1.93-7.74-9.08-13.15-11.36c-4.04-1.7-8.68-0.19-12.6,1.78c-3.91,1.97-7.78,4.45-12.15,4.73
					c-3.8,0.24-7.93-1.17-11.26,0.69c-2.48,1.38-3.78,4.24-6.06,5.93c-2.24,1.65-5.15,2-7.93,2.15c-2.77,0.15-5.65,0.18-8.17,1.34
					c-2.53,1.16-4.62,3.83-4.09,6.56L617.86,95.26z"/>
			</g>
		</g>
	</g>
	<g>
		<g>
			<g>
				<path class="st0" d="M63.36,228.61l24.12-3.69c2.02,13.23-7.2,25.79-20.44,27.81c-13.23,2.02-25.79-7.2-27.81-20.44
					c-2.02-13.23,7.2-25.79,20.44-27.81c2.11-0.32,4.25-0.37,6.37-0.13L63.36,228.61z"/>
			</g>
		</g>
		<g>
			<g>
				<path class="st1" d="M71.18,204.43l-2.93,18.7l18.35-3.45C86.61,219.68,83.91,209.21,71.18,204.43z"/>
			</g>
		</g>
	</g>
	<g>
		<g>
			<g>
				<g>
					<g>
						<path class="st2" d="M522.34,300.52c2.14,0.04,4.24,0.37,6.25,0.96l4.07-4.22l8.3,5.03l-1.86,5.56
							c1.45,1.51,2.72,3.22,3.74,5.1l5.86-0.1l2.31,9.42l-5.24,2.62c-0.04,2.14-0.37,4.24-0.96,6.25l4.22,4.07l-5.03,8.3l-5.56-1.86
							c-1.51,1.45-3.22,2.72-5.1,3.74l0.1,5.86l-9.42,2.31l-2.62-5.24c-2.14-0.04-4.24-0.37-6.25-0.96l-4.07,4.22l-8.3-5.03
							l1.86-5.56c-1.45-1.51-2.72-3.22-3.74-5.1l-5.86,0.1l-2.31-9.42l5.24-2.62c0.04-2.14,0.37-4.24,0.96-6.25l-4.22-4.07l5.03-8.3
							l5.56,1.86c1.51-1.45,3.22-2.72,5.1-3.74l-0.1-5.86l9.42-2.31L522.34,300.52L522.34,300.52z M519.82,314.21
							c-5.58,1.37-9,7-7.63,12.59c1.37,5.58,7,9,12.59,7.63c5.58-1.37,9-7,7.63-12.59C531.04,316.26,525.4,312.84,519.82,314.21z"/>
					</g>
				</g>
			</g>
		</g>
		<g>
			<g>
				<g>
					<g>
						<g>
							<path class="st2" d="M519.82,314.21c0,0,0.87-0.36,2.55-0.4c1.64-0.04,4.21,0.38,6.6,2.26c1.17,0.94,2.29,2.22,3.03,3.85
								c0.72,1.62,1.15,3.55,0.91,5.55c-0.09,1-0.35,2.01-0.76,2.98c-0.39,0.97-0.95,1.91-1.66,2.74c-1.38,1.7-3.4,2.96-5.65,3.53
								c-2.26,0.53-4.63,0.34-6.64-0.52c-1.01-0.41-1.94-0.98-2.74-1.66c-0.81-0.67-1.51-1.44-2.05-2.29
								c-1.13-1.67-1.65-3.57-1.75-5.34c-0.1-1.78,0.3-3.44,0.91-4.81c1.25-2.78,3.33-4.34,4.81-5.06
								C518.88,314.29,519.82,314.21,519.82,314.21c0.02,0.07-0.9,0.24-2.34,1.02c-1.41,0.77-3.38,2.33-4.53,5.02
								c-0.56,1.33-0.92,2.92-0.8,4.62c0.13,1.68,0.63,3.49,1.72,5.06c0.52,0.8,1.19,1.53,1.95,2.16c0.76,0.64,1.64,1.18,2.6,1.56
								c1.91,0.81,4.14,0.99,6.28,0.48c2.13-0.54,4.02-1.73,5.34-3.33c0.67-0.78,1.21-1.67,1.58-2.59c0.39-0.91,0.65-1.87,0.74-2.81
								c0.24-1.9-0.15-3.73-0.82-5.28c-0.68-1.56-1.73-2.8-2.84-3.72c-2.26-1.85-4.73-2.33-6.34-2.36
								C520.73,314.01,519.83,314.28,519.82,314.21z"/>
						</g>
					</g>
				</g>
			</g>
		</g>
	</g>
	<g>
		<g>
			<g>
				<g>
					<path class="st2" d="M290.03,332.69c-0.06,0-0.13-0.67-0.22-1.93c-0.03-0.63-0.09-1.41-0.26-2.32
						c-0.14-0.91-0.27-1.97-0.61-3.12c-0.51-2.33-1.57-5.1-3.24-8.03c-1.69-2.92-4.13-5.98-7.46-8.6
						c-3.33-2.59-7.54-4.83-12.42-5.79c-4.85-0.93-10.35-0.9-15.61,0.97c-2.65,0.85-5.22,2.18-7.58,3.87
						c-1.22,0.8-2.3,1.81-3.42,2.78c-1.02,1.08-2.09,2.13-2.98,3.37c-3.76,4.76-5.95,10.93-6.17,17.35
						c-0.1,6.42,1.8,12.69,5.32,17.63c0.83,1.27,1.85,2.38,2.81,3.51c1.08,1.02,2.1,2.09,3.28,2.94c2.28,1.8,4.78,3.25,7.39,4.23
						c5.17,2.13,10.66,2.43,15.55,1.73c4.93-0.73,9.24-2.75,12.69-5.18c3.46-2.45,6.05-5.39,7.87-8.23c1.81-2.85,3-5.55,3.63-7.86
						c0.39-1.13,0.57-2.18,0.76-3.09c0.22-0.9,0.31-1.68,0.37-2.31C289.87,333.35,289.97,332.69,290.03,332.69
						c0.06,0,0.06,0.67,0.02,1.95c-0.01,0.64-0.05,1.43-0.22,2.36c-0.14,0.93-0.27,2.01-0.62,3.18c-0.54,2.38-1.67,5.2-3.46,8.18
						c-1.81,2.97-4.42,6.07-7.97,8.69c-3.54,2.59-8.01,4.77-13.16,5.59c-5.11,0.79-10.87,0.53-16.33-1.66
						c-2.75-1.02-5.39-2.52-7.81-4.41c-1.25-0.9-2.34-2.01-3.48-3.09c-1.03-1.18-2.1-2.35-2.98-3.69
						c-3.73-5.2-5.75-11.83-5.65-18.61c0.22-6.77,2.57-13.3,6.54-18.31c0.94-1.29,2.07-2.4,3.16-3.54c1.19-1.02,2.33-2.08,3.62-2.91
						c2.51-1.77,5.22-3.14,8.01-4.02c5.56-1.93,11.33-1.91,16.39-0.87c5.1,1.07,9.46,3.47,12.87,6.23c3.42,2.78,5.88,6.01,7.54,9.06
						c1.65,3.07,2.64,5.94,3.06,8.34c0.3,1.19,0.38,2.27,0.47,3.21c0.12,0.93,0.13,1.72,0.1,2.37
						C290.13,332.02,290.09,332.69,290.03,332.69z"/>
				</g>
			</g>
		</g>
		<g>
			<g>
				<g>
					<path class="st2" d="M283.94,313.69c0.07,0.09-0.48,0.57-1.54,1.36c-0.58,0.42-1.23,0.88-1.96,1.4
						c-0.39,0.27-0.79,0.57-1.25,0.85c-0.48,0.25-0.98,0.51-1.5,0.78c-4.07,2.35-10.52,4.75-17.88,4.5
						c-0.91-0.04-1.82-0.08-2.71-0.12c-0.88-0.14-1.75-0.27-2.6-0.41c-0.42-0.07-0.85-0.13-1.26-0.21
						c-0.41-0.11-0.81-0.22-1.21-0.32c-0.8-0.22-1.59-0.41-2.34-0.65c-2.98-1.04-5.56-2.25-7.59-3.5c-4.08-2.46-6.06-4.71-5.91-4.85
						c0.16-0.19,2.38,1.69,6.49,3.82c2.04,1.08,4.58,2.14,7.47,3.06c0.73,0.21,1.49,0.37,2.26,0.57c0.38,0.1,0.77,0.19,1.17,0.29
						c0.4,0.06,0.8,0.12,1.21,0.18c0.81,0.12,1.64,0.24,2.48,0.37c0.85,0.03,1.71,0.07,2.58,0.1c7,0.24,13.2-1.86,17.32-3.89
						c0.53-0.23,1.03-0.45,1.52-0.66c0.46-0.24,0.88-0.5,1.28-0.72c0.77-0.42,1.46-0.8,2.08-1.14
						C283.2,313.89,283.88,313.59,283.94,313.69z"/>
				</g>
			</g>
		</g>
		<g>
			<g>
				<g>
					<path class="st2" d="M235.28,350.67c-0.07-0.09,0.48-0.57,1.54-1.36c0.58-0.42,1.23-0.88,1.96-1.4
						c0.39-0.27,0.79-0.57,1.25-0.85c0.48-0.25,0.98-0.51,1.5-0.78c4.07-2.35,10.52-4.75,17.88-4.5c0.91,0.04,1.82,0.08,2.71,0.12
						c0.88,0.14,1.75,0.27,2.6,0.41c0.42,0.07,0.85,0.13,1.26,0.21c0.41,0.11,0.81,0.22,1.21,0.32c0.8,0.22,1.59,0.41,2.34,0.65
						c2.98,1.04,5.56,2.25,7.59,3.5c4.08,2.46,6.06,4.71,5.91,4.85c-0.16,0.19-2.38-1.69-6.49-3.82c-2.04-1.08-4.58-2.14-7.47-3.06
						c-0.73-0.21-1.49-0.37-2.26-0.57c-0.38-0.1-0.77-0.19-1.17-0.29c-0.4-0.06-0.8-0.12-1.21-0.18c-0.81-0.12-1.64-0.24-2.48-0.37
						c-0.85-0.03-1.71-0.07-2.58-0.1c-7-0.24-13.2,1.86-17.32,3.89c-0.53,0.23-1.03,0.45-1.52,0.66c-0.46,0.24-0.88,0.5-1.28,0.72
						c-0.77,0.42-1.46,0.8-2.08,1.14C236.03,350.47,235.35,350.76,235.28,350.67z"/>
				</g>
			</g>
		</g>
		<g>
			<g>
				<g>
					<path class="st2" d="M290.01,333.4c-0.01,0.46-13.64,0.51-30.43,0.1c-16.8-0.41-30.4-1.11-30.39-1.57
						c0.01-0.46,13.63-0.51,30.43-0.1C276.42,332.23,290.02,332.93,290.01,333.4z"/>
				</g>
			</g>
		</g>
		<g>
			<g>
				<g>
					<path class="st2" d="M258.2,362.33c-0.46-0.01-0.51-13.63-0.1-30.42c0.41-16.79,1.11-30.39,1.57-30.38
						c0.46,0.01,0.51,13.63,0.1,30.42C259.37,348.74,258.66,362.34,258.2,362.33z"/>
				</g>
			</g>
		</g>
		<g>
			<g>
				<g>
					<path class="st2" d="M258.2,362.29c-0.11,0.18-3.47-2.1-7.33-7.24c-1.91-2.57-3.92-5.87-5.44-9.87
						c-1.51-3.99-2.46-8.68-2.35-13.63c0.09-4.96,1.33-9.6,3.07-13.49c1.74-3.9,3.91-7.09,5.94-9.57c4.1-4.95,7.47-7.14,7.59-6.97
						c0.16,0.19-2.9,2.68-6.66,7.7c-1.86,2.51-3.87,5.67-5.46,9.45c-1.59,3.77-2.73,8.2-2.81,12.91c-0.1,4.72,0.76,9.21,2.13,13.07
						c1.38,3.87,3.21,7.13,4.95,9.72C255.35,359.55,258.37,362.1,258.2,362.29z"/>
				</g>
			</g>
		</g>
		<g>
			<g>
				<g>
					<path class="st2" d="M260.36,301.54c0.11-0.18,3.47,2.1,7.33,7.24c1.91,2.57,3.92,5.87,5.44,9.87
						c1.51,3.99,2.46,8.68,2.35,13.63c-0.09,4.96-1.33,9.6-3.07,13.49c-1.74,3.9-3.91,7.09-5.94,9.57c-4.1,4.95-7.47,7.14-7.59,6.97
						c-0.16-0.19,2.9-2.68,6.66-7.7c1.86-2.51,3.87-5.67,5.46-9.45c1.59-3.77,2.73-8.2,2.81-12.91c0.1-4.72-0.76-9.21-2.13-13.07
						c-1.38-3.87-3.21-7.13-4.95-9.72C263.21,304.28,260.19,301.73,260.36,301.54z"/>
				</g>
			</g>
		</g>
	</g>
	<g>
		<g>
			<g>
				<g>
					<g>
						
							<rect x="167.36" y="160.41" transform="matrix(0.9961 -0.0885 0.0885 0.9961 -14.9539 17.7549)" class="st0" width="50.87" height="34.29"/>
					</g>
				</g>
			</g>
			<g>
				<g>
					<g>
						<g>
							<path class="st1" d="M216.61,158.22c0.01,0.01-0.14,0.18-0.43,0.5c-0.33,0.34-0.76,0.8-1.3,1.36
								c-1.18,1.2-2.83,2.89-4.85,4.95c-4.16,4.18-9.85,9.91-16.16,16.25l-0.13,0.13l-0.16-0.1c-0.12-0.08-0.25-0.17-0.38-0.25
								c-7.53-5.02-14.34-9.56-19.33-12.89c-2.43-1.65-4.41-2.99-5.83-3.95c-0.65-0.45-1.18-0.82-1.57-1.09
								c-0.36-0.25-0.54-0.39-0.53-0.41c0.01-0.01,0.21,0.1,0.58,0.33c0.41,0.26,0.95,0.6,1.62,1.02c1.44,0.93,3.45,2.23,5.91,3.83
								c5,3.29,11.84,7.8,19.4,12.77c0.13,0.09,0.26,0.17,0.38,0.25l-0.29,0.03c6.34-6.3,12.07-12,16.26-16.15
								c2.07-2.02,3.75-3.67,4.95-4.85c0.57-0.54,1.02-0.97,1.36-1.3C216.43,158.36,216.6,158.21,216.61,158.22z"/>
						</g>
					</g>
				</g>
			</g>
		</g>
		<g>
			<g>
				<g>
					<g>
						<path class="st1" d="M168.97,196.88c-0.1-0.07,3.29-5.09,7.58-11.21c4.29-6.12,7.85-11.02,7.96-10.95
							c0.1,0.07-3.29,5.09-7.58,11.21C172.64,192.05,169.08,196.95,168.97,196.88z"/>
					</g>
				</g>
			</g>
		</g>
		<g>
			<g>
				<g>
					<g>
						<path class="st1" d="M201.32,172.8c0.09-0.09,4.27,4.23,9.33,9.63c5.06,5.41,9.09,9.86,8.99,9.95
							c-0.09,0.09-4.27-4.22-9.33-9.63C205.25,177.34,201.22,172.88,201.32,172.8z"/>
					</g>
				</g>
			</g>
		</g>
	</g>
	<g>
		<g>
			<g>
				<path class="st2" d="M216.33,89.12c1.12-8.15-10.38-14.85-19.02-15.55c-4.12-0.33-8.4,0.3-12.3-1.06
					c-8.46-2.95-11.84-13.88-20.09-17.36c-6.17-2.6-13.27-0.29-19.25,2.72c-5.98,3.01-11.89,6.8-18.58,7.23
					c-5.81,0.37-12.13-1.78-17.21,1.06c-3.79,2.12-5.77,6.48-9.27,9.06c-3.42,2.52-7.87,3.05-12.11,3.28
					c-4.24,0.23-8.63,0.27-12.49,2.04c-3.86,1.77-7.05,5.85-6.25,10.02L216.33,89.12z"/>
			</g>
		</g>
	</g>
	<g>
		<g>
			<g>
				<path class="st2" d="M405.47,396.96c0.7-5.11-6.5-9.31-11.92-9.74c-2.58-0.21-5.27,0.19-7.71-0.67
					c-5.3-1.85-7.42-8.7-12.59-10.88c-3.87-1.63-8.32-0.18-12.07,1.71c-3.75,1.89-7.45,4.26-11.64,4.53
					c-3.64,0.23-7.6-1.12-10.79,0.66c-2.38,1.33-3.62,4.06-5.81,5.68c-2.14,1.58-4.94,1.91-7.59,2.06
					c-2.66,0.14-5.41,0.17-7.83,1.28c-2.42,1.11-4.42,3.67-3.92,6.28L405.47,396.96z"/>
			</g>
		</g>
	</g>
	<g>
		<g>
			<g>
				<path class="st0" d="M391.11,47.3c0.73-5.33-6.79-9.72-12.44-10.17c-2.7-0.22-5.5,0.19-8.05-0.7
					c-5.53-1.93-7.74-9.08-13.14-11.36c-4.04-1.7-8.68-0.19-12.6,1.78c-3.91,1.97-7.78,4.45-12.15,4.73
					c-3.8,0.24-7.93-1.17-11.26,0.69c-2.48,1.38-3.78,4.24-6.06,5.93c-2.24,1.65-5.15,2-7.93,2.15c-2.77,0.15-5.65,0.18-8.17,1.34
					c-2.53,1.16-4.62,3.83-4.09,6.56L391.11,47.3z"/>
			</g>
		</g>
	</g>
</g>
<g id="Background_Simple" class="st3">
	<path class="st4" d="M273.63,74.37c-11.37-19.63-38-28.75-59.03-20.23c-9.53,3.87-17.94,10.85-28.12,12.33
		c-16.26,2.36-30.76-9.89-41.75-22.1c-10.99-12.21-22.47-26.15-38.66-28.91C85.13,11.88,65.8,29.26,57,48.61
		c-14.76,32.47-8.4,73.43,15.53,99.89c22.99,25.42,56.16,41.97,95.9,40.48l0,0c21.1-1.93,31.62-4.2,51.77-10.74
		c20.15-6.54,37.48-26.08,49.24-43.7S284.26,92.7,273.63,74.37z"/>
	<path class="st4" d="M439.68,42.05c-12.17-13.49-29.57-22.13-47.67-23.67c-15.82-1.34-36.97-1.38-51.57,6.14l0,0
		c0,0-0.01,0-0.01,0.01c-0.02,0.01-0.04,0.02-0.06,0.03c-14.24,6.83-26.99,17.75-32.19,30.61c-5.21,12.89-2.94,28.58,5.95,39.26
		c8.89,10.69,24.11,15.77,37.56,12.27c13.48-3.51,24.87-14.75,38.79-14.53c13.48,0.21,25.25,11.32,38.7,10.49
		c12.78-0.79,22.85-13.07,24.03-25.83C454.39,64.09,448.26,51.56,439.68,42.05z"/>
	<path class="st4" d="M614.45,64.32c-10.15-14.43-32.32-18.57-47-8.78l-2.69,1.99c-13.65,11.18-16.15,33.6-5.31,47.51
		c10.84,13.92,33.19,16.97,47.37,6.47C621,101.02,624.6,78.75,614.45,64.32z"/>
</g>
<g id="Sheet">
</g>
<g id="Stopwatch">
</g>
<g id="Video">
	<path class="st5" d="M263.24,171.61c10.73-7.97,21.47-15.94,32.2-23.9c1.47,2.29,2.94,4.57,4.41,6.86
		c3.02,4.73,6.03,9.48,9.05,14.21c2.58,4.05,5.17,8.1,7.76,12.14c0.18,0.28,0.17,0.47-0.02,0.74c-3.34,4.72-6.67,9.45-10.01,14.17
		c-0.12,0.18-0.34,0.33-0.54,0.4c-5.32,1.78-10.64,3.54-15.96,5.3c-0.95,0.31-0.93,0.3-1.59-0.46c-2.02-2.37-4.06-4.74-6.09-7.1
		c-2.06-2.4-4.12-4.8-6.18-7.2c-2.01-2.34-4.02-4.69-6.03-7.03C267.9,177.03,265.57,174.32,263.24,171.61z M272.96,172.71
		c3.8,4.44,7.58,8.85,11.39,13.29c4.83-3.58,9.63-7.15,14.47-10.74c1.2,1.89,2.38,3.73,3.54,5.58c0.06,0.09,0,0.31-0.07,0.42
		c-1.05,1.52-2.11,3.03-3.18,4.53c-0.1,0.13-0.24,0.27-0.4,0.32c-1.79,0.6-3.58,1.19-5.38,1.77c-0.12,0.04-0.33-0.04-0.43-0.14
		c-0.27-0.26-0.51-0.56-0.77-0.85c-1.43,1.06-2.84,2.11-4.24,3.15c0.1,0.14,0.19,0.26,0.28,0.38c0.98,1.14,1.97,2.28,2.94,3.43
		c0.18,0.22,0.33,0.26,0.59,0.17c3.42-1.13,6.84-2.24,10.26-3.37c0.18-0.06,0.38-0.19,0.49-0.34c2.09-2.97,4.16-5.95,6.25-8.92
		c0.14-0.21,0.13-0.35,0-0.55c-0.58-0.89-1.14-1.8-1.71-2.69c-1.71-2.68-3.41-5.36-5.12-8.04c-0.53-0.83-1.06-1.66-1.62-2.53
		c-5.03,3.73-10.03,7.45-15.07,11.18c-1.5-1.74-2.96-3.46-4.45-5.2c5.29-3.93,10.55-7.83,15.83-11.75c-0.96-1.51-1.9-2.98-2.86-4.48
		C286.78,162.45,279.9,167.56,272.96,172.71z"/>
</g>
<g id="Photos">
</g>
<g id="Light_Bulb">
</g>
<g id="Character">
	<g>
		<g>
			<g>
				<g class="st6">
					<g>
						<g>
							<path class="st5" d="M381.34,218.1c-11-10.19-30.5-9-40.18,2.46c-3.82,4.52-6.4,10.44-11.64,13.18
								c-8.04,4.21-17.76-1.1-26.8-0.33c-10.6,0.91-19.3,11.66-17.98,22.21c0.6,4.75,2.85,9.83,0.62,14.07
								c-2.85,5.41-11.1,5.62-14.57,10.66c-3.13,4.55-0.69,11.26,3.85,14.4c4.54,3.14,10.42,3.52,15.93,3.27
								c5.52-0.25,11.12-1.02,16.5,0.2c5.93,1.35,11.05,4.98,16.69,7.24c13.57,5.44,29.46,2.41,42.04-5.06
								c12.57-7.47,22.3-18.89,30.78-30.8"/>
						</g>
					</g>
				</g>
			</g>
			<g>
				<g>
					<path class="st5" d="M383.09,228.94c-8.95-8.78-25.6-7.54-33.15,2.46c-4.61,6.11-7.26,15.45-14.85,16.47
						c-5.15,0.7-10.02-3.18-15.2-2.78c-6.89,0.53-11.07,8.93-9.3,15.61c1.77,6.68,7.65,11.5,13.82,14.63
						c21.37,10.85,49.86,5.12,65.36-13.16"/>
				</g>
			</g>
		</g>
		<g>
			<g>
				<g>
					<g>
						<polyline class="st7" points="586.8,251.29 575.23,234.89 590.28,224.22 600.82,245.63 587.5,251.15 						"/>
					</g>
				</g>
				<g>
					<g>
						<g>
							<g>
								<g>
									<g>
										<path d="M600.19,242.7l8.19,14.77c0,0,17.76-3.36,19.54-0.78l-28.07,16.9l-13.7-22.49L600.19,242.7z"/>
									</g>
								</g>
							</g>
						</g>
						<g class="st8">
							<g>
								<g>
									<g>
										<g>
											<path class="st9" d="M598.97,261.48c-0.45,0.48-0.46,1.31-0.01,1.79c0.46,0.47,1.31,0.49,1.77,0.02
												c0.46-0.47,0.5-1.47,0-1.89c-0.51-0.42-1.51-0.38-1.84,0.18"/>
										</g>
									</g>
								</g>
							</g>
						</g>
						<g class="st8">
							<g>
								<g>
									<g>
										<path class="st9" d="M599.85,273.59l-1.29-2.32l27.4-15.34c0,0,1.58-0.21,1.97,0.76L599.85,273.59z"/>
									</g>
								</g>
							</g>
						</g>
						<g>
							<g>
								<g>
									<g>
										<g>
											<path class="st10" d="M608.75,257.05c0.08,0.14-0.57,0.61-0.98,1.46c-0.43,0.84-0.42,1.64-0.58,1.66
												c-0.14,0.05-0.43-0.89,0.08-1.91C607.77,257.24,608.7,256.91,608.75,257.05z"/>
										</g>
									</g>
								</g>
							</g>
						</g>
						<g>
							<g>
								<g>
									<g>
										<g>
											<path class="st10" d="M612.42,256.5c0.11,0.11-0.34,0.7-0.46,1.56c-0.14,0.86,0.12,1.55-0.02,1.63
												c-0.12,0.1-0.69-0.65-0.53-1.71C611.57,256.91,612.34,256.37,612.42,256.5z"/>
										</g>
									</g>
								</g>
							</g>
						</g>
						<g>
							<g>
								<g>
									<g>
										<g>
											<path class="st10" d="M616.22,259.01c-0.11,0.1-0.71-0.47-0.81-1.43c-0.11-0.96,0.36-1.65,0.49-1.57
												c0.15,0.07-0.03,0.72,0.07,1.51C616.04,258.32,616.35,258.92,616.22,259.01z"/>
										</g>
									</g>
								</g>
							</g>
						</g>
						<g>
							<g>
								<g>
									<g>
										<g>
											<path class="st10" d="M606.51,253.89c0.02,0.16-0.72,0.35-1.47,0.87c-0.75,0.5-1.2,1.13-1.34,1.05
												c-0.14-0.05,0.14-0.91,1.03-1.51C605.6,253.7,606.51,253.75,606.51,253.89z"/>
										</g>
									</g>
								</g>
							</g>
						</g>
					</g>
					<g>
						<g>
							<g>
								<g>
									<g>
										<path class="st10" d="M604.8,250.94c0.04,0.06-0.46,0.47-1.41,0.84c-0.48,0.18-1.07,0.35-1.74,0.43
											c-0.34,0.04-0.69,0.06-1.07,0.06c-0.18-0.01-0.38,0-0.62-0.07c-0.24-0.05-0.54-0.36-0.5-0.69
											c0.01-0.3,0.21-0.55,0.41-0.68c0.2-0.13,0.4-0.19,0.57-0.24c0.36-0.11,0.71-0.19,1.05-0.23c0.68-0.08,1.3-0.03,1.81,0.07
											c1.01,0.21,1.54,0.59,1.51,0.64c-0.03,0.08-0.61-0.16-1.57-0.25c-0.48-0.05-1.06-0.05-1.68,0.05
											c-0.31,0.05-0.63,0.13-0.96,0.24c-0.34,0.1-0.6,0.25-0.6,0.43c0,0.07,0.01,0.09,0.13,0.14c0.11,0.04,0.28,0.05,0.46,0.05
											c0.35,0.01,0.68,0,1-0.02c0.64-0.05,1.2-0.17,1.67-0.3C604.21,251.15,604.76,250.87,604.8,250.94z"/>
									</g>
								</g>
							</g>
						</g>
					</g>
					<g>
						<g>
							<g>
								<g>
									<g>
										<path class="st10" d="M604.74,251.25c-0.04,0.05-0.6-0.28-1.19-1.13c-0.29-0.43-0.56-0.99-0.73-1.65
											c-0.08-0.33-0.14-0.69-0.16-1.07c0-0.38-0.03-0.87,0.47-1.25c0.27-0.18,0.63-0.1,0.82,0.04c0.21,0.13,0.32,0.29,0.45,0.43
											c0.25,0.3,0.44,0.62,0.57,0.95c0.27,0.65,0.33,1.3,0.27,1.81c-0.11,1.06-0.58,1.57-0.62,1.53
											c-0.09-0.04,0.23-0.59,0.23-1.55c0-0.47-0.09-1.03-0.35-1.59c-0.13-0.28-0.3-0.55-0.51-0.8
											c-0.22-0.27-0.48-0.45-0.57-0.35c-0.14,0.08-0.24,0.45-0.21,0.76c0.01,0.34,0.05,0.66,0.11,0.97
											c0.13,0.61,0.35,1.15,0.57,1.57C604.35,250.76,604.8,251.18,604.74,251.25z"/>
									</g>
								</g>
							</g>
						</g>
					</g>
				</g>
				<g>
					<g>
						<polyline class="st10" points="543.95,193 579.89,249.48 599.55,236.12 566.44,168.07 						"/>
					</g>
				</g>
				<g>
					<g>
						<g>
							<path class="st11" d="M546.86,180.61c0.15,0.07-0.92,2.36-1.44,5.39c-0.54,3.03-0.3,5.55-0.47,5.56
								c-0.12,0.03-0.6-2.53-0.05-5.65C545.44,182.79,546.75,180.54,546.86,180.61z"/>
						</g>
					</g>
				</g>
				<g>
					<g>
						<g>
							<path class="st11" d="M543.17,180.77c0.16,0.01,0.01,2.48,0.41,5.48c0.38,3,1.16,5.35,1.01,5.4
								c-0.12,0.05-1.14-2.26-1.53-5.33C542.65,183.25,543.04,180.75,543.17,180.77z"/>
						</g>
					</g>
				</g>
			</g>
			<g>
				<g>
					<g>
						<path class="st12" d="M403.81,192.83l-24.65-7.61c-29.74,37.87-27.75,79.48,20.12,104.1l26.56-29.78L403.81,192.83z"/>
					</g>
				</g>
				<g>
					<g>
						<g>
							<path class="st1" d="M406.21,186.79c-15.78,9.2-23.62,28.6-21.7,47.57c2.11,20.82,15.87,41.12,41.08,46.73l169.53-33.89
								c29.6-5.92,47.79-35.9,39.37-64.89l0,0c-7.68-26.43-34.78-42.16-61.54-35.71L406.21,186.79z"/>
						</g>
					</g>
					<g>
						<g>
							<g>
								<path class="st10" d="M406.21,186.79c0,0,0.53-0.15,1.57-0.41c1.05-0.26,2.6-0.64,4.63-1.14c4.08-1,10.09-2.46,17.83-4.35
									c15.5-3.76,37.92-9.19,65.61-15.9c13.86-3.35,29.03-7.02,45.32-10.96c8.15-1.97,16.57-4,25.25-6.1
									c2.17-0.52,4.36-1.05,6.56-1.58c1.12-0.21,2.24-0.43,3.36-0.64c0.56-0.1,1.12-0.22,1.69-0.31l1.72-0.16
									c1.15-0.09,2.3-0.23,3.46-0.29c1.16,0.01,2.33,0.02,3.49,0.02c1.17-0.04,2.33,0.13,3.5,0.25l1.76,0.18l0.88,0.09l0.87,0.17
									c1.16,0.23,2.32,0.47,3.49,0.7c1.16,0.27,2.29,0.67,3.44,1c0.57,0.18,1.15,0.33,1.72,0.53l1.67,0.68l1.68,0.68
									c0.56,0.22,1.12,0.45,1.65,0.75c1.08,0.56,2.15,1.12,3.24,1.68c1.07,0.59,2.06,1.3,3.1,1.95c0.51,0.34,1.04,0.65,1.54,1.01
									l1.45,1.14l1.46,1.14l0.73,0.57l0.67,0.64c7.39,6.6,12.95,15.55,15.56,25.53c2.63,9.96,2.21,20.92-1.52,30.9
									c-3.67,9.98-10.58,18.95-19.66,25.05c-3.8,2.59-7.96,4.61-12.27,6.06c-4.31,1.51-8.8,2.17-13.17,3.09
									c-8.78,1.75-17.45,3.49-26,5.2c-17.1,3.41-33.71,6.73-49.68,9.92c-31.95,6.37-61.37,12.24-87.18,17.39l-0.04,0.01
									l-0.04-0.01c-4.54-1.09-8.88-2.59-12.87-4.57c-3.95-2.06-7.56-4.52-10.76-7.28c-3.14-2.84-5.84-5.95-8.15-9.21
									c-2.22-3.31-4.06-6.73-5.49-10.18c-0.37-0.86-0.64-1.75-0.97-2.61c-0.32-0.86-0.63-1.72-0.85-2.6
									c-0.24-0.87-0.49-1.73-0.73-2.58c-0.18-0.87-0.36-1.73-0.54-2.58c-0.19-0.85-0.35-1.7-0.45-2.55
									c-0.11-0.85-0.23-1.68-0.34-2.51c-0.09-0.83-0.12-1.66-0.19-2.48c-0.07-0.82-0.11-1.63-0.1-2.43
									c-0.1-6.43,0.85-12.3,2.47-17.35c1.59-5.06,3.75-9.29,6.02-12.69c2.27-3.4,4.63-5.98,6.72-7.84c0.52-0.47,1-0.93,1.48-1.32
									c0.49-0.38,0.95-0.72,1.37-1.05c0.42-0.32,0.81-0.62,1.17-0.89c0.38-0.24,0.72-0.46,1.02-0.65
									C405.58,187.17,406.21,186.79,406.21,186.79s-0.61,0.42-1.82,1.2c-0.3,0.2-0.64,0.42-1.01,0.66
									c-0.35,0.27-0.74,0.57-1.16,0.9c-0.42,0.33-0.87,0.68-1.36,1.06c-0.48,0.39-0.94,0.86-1.46,1.32
									c-2.07,1.87-4.41,4.45-6.65,7.85c-2.25,3.39-4.39,7.62-5.95,12.66c-1.59,5.02-2.52,10.88-2.41,17.27
									c-0.01,0.8,0.03,1.61,0.1,2.42c0.06,0.81,0.1,1.64,0.19,2.46c0.11,0.82,0.23,1.66,0.34,2.5c0.09,0.84,0.26,1.69,0.45,2.53
									c0.18,0.85,0.36,1.7,0.55,2.56c0.24,0.85,0.48,1.7,0.73,2.57c0.22,0.87,0.53,1.72,0.85,2.58c0.32,0.85,0.6,1.73,0.97,2.59
									c1.43,3.43,3.27,6.82,5.48,10.11c2.3,3.22,4.99,6.31,8.11,9.13c3.18,2.74,6.76,5.17,10.69,7.21
									c3.97,1.96,8.27,3.44,12.79,4.52l-0.08,0c25.8-5.17,55.22-11.07,87.16-17.47c15.97-3.2,32.58-6.52,49.68-9.94
									c8.55-1.71,17.22-3.45,26-5.2c4.38-0.92,8.85-1.58,13.11-3.07c4.27-1.44,8.38-3.44,12.14-6
									c8.99-6.03,15.83-14.91,19.47-24.79c3.69-9.88,4.11-20.73,1.51-30.59c-2.58-9.88-8.08-18.74-15.4-25.28l-0.67-0.63
									l-0.72-0.57l-1.44-1.13l-1.44-1.13c-0.49-0.36-1.02-0.67-1.52-1.01c-1.03-0.64-2.02-1.35-3.07-1.93
									c-1.07-0.56-2.14-1.11-3.2-1.67c-0.52-0.3-1.08-0.52-1.64-0.74l-1.66-0.68l-1.66-0.67c-0.56-0.2-1.14-0.35-1.7-0.53
									c-1.14-0.33-2.26-0.72-3.41-0.99c-1.16-0.23-2.31-0.47-3.46-0.7l-0.86-0.17l-0.87-0.09l-1.74-0.18
									c-1.16-0.11-2.31-0.29-3.47-0.25c-1.16-0.01-2.31-0.02-3.46-0.03c-1.15,0.05-2.29,0.19-3.43,0.28l-1.7,0.15
									c-0.56,0.09-1.12,0.21-1.68,0.31c-1.11,0.21-2.23,0.42-3.33,0.63c-2.2,0.53-4.39,1.05-6.56,1.57
									c-8.68,2.09-17.1,4.11-25.25,6.07c-16.29,3.91-31.47,7.56-45.32,10.89c-27.71,6.64-50.14,12.02-65.65,15.74
									c-7.75,1.85-13.77,3.28-17.86,4.26c-2.04,0.48-3.6,0.85-4.65,1.09C406.75,186.68,406.21,186.79,406.21,186.79z"/>
							</g>
						</g>
					</g>
				</g>
				<g>
					<g>
						<path d="M425.59,281.1l-22.36,50.85c0,0,105.5-10.18,101-66.57L425.59,281.1z"/>
					</g>
				</g>
				<g>
					<g>
						<path class="st12" d="M486.05,167.55c0,0-50.72-49.23-115.21-28.49l35.37,47.73L486.05,167.55z"/>
					</g>
				</g>
				<g>
					<g>
						<path class="st12" d="M578.66,145.91c21.77,16.06,35.08,78.57,24.59,98.43c61.7-18.05,74.64-71.02,74.64-71.02
							C633.29,131.8,578.66,145.91,578.66,145.91z"/>
					</g>
				</g>
				<g>
					<g>
						<g>
							<path class="st11" d="M393.87,257.84c0.11,0.09-3.28,4.15-7.58,9.06c-4.29,4.91-7.86,8.81-7.97,8.72
								c-0.11-0.09,3.28-4.15,7.58-9.06C390.19,261.65,393.76,257.75,393.87,257.84z"/>
						</g>
					</g>
				</g>
				<g>
					<g>
						<g>
							<path class="st10" d="M677.89,173.32c0,0-0.12,0.23-0.38,0.67c-0.27,0.45-0.66,1.1-1.17,1.94c-0.52,0.86-1.16,1.91-1.91,3.15
								c-0.38,0.62-0.79,1.29-1.22,2.01c-0.48,0.69-0.99,1.42-1.53,2.2c-1.09,1.55-2.28,3.28-3.64,5.15
								c-1.45,1.8-3.02,3.75-4.71,5.84c-0.89,1.01-1.85,2.02-2.82,3.08c-0.99,1.04-1.94,2.19-3.05,3.23c-2.22,2.1-4.5,4.39-7.15,6.5
								c-5.2,4.34-11.35,8.6-18.47,12.19c-3.55,1.83-7.36,3.43-11.36,4.86c-1.99,0.73-4.06,1.36-6.09,2.1
								c-2.05,0.71-4.29,1.16-6.45,1.65c-17.48,3.87-36.76,7.83-56.98,12.03c-40.47,8.36-77.13,15.82-103.67,21.18
								c-13.26,2.67-24,4.82-31.44,6.32c-3.7,0.73-6.58,1.3-8.55,1.69c-0.97,0.19-1.71,0.33-2.23,0.43
								c-0.5,0.09-0.76,0.13-0.76,0.13s0.25-0.07,0.75-0.18c0.51-0.11,1.25-0.27,2.22-0.48c1.97-0.41,4.84-1.01,8.53-1.78
								c7.43-1.53,18.15-3.75,31.4-6.48c26.53-5.46,63.16-13,103.63-21.33c20.22-4.2,39.5-8.15,56.98-11.99
								c2.2-0.5,4.32-0.91,6.38-1.62c2.07-0.75,4.12-1.37,6.11-2.1c3.99-1.41,7.78-3,11.32-4.81c7.1-3.56,13.24-7.78,18.43-12.09
								c2.66-2.1,4.94-4.37,7.16-6.45c1.12-1.03,2.07-2.18,3.06-3.21c0.97-1.06,1.93-2.06,2.82-3.06c1.7-2.08,3.28-4.02,4.73-5.8
								c1.36-1.85,2.56-3.58,3.67-5.11c0.55-0.77,1.06-1.5,1.55-2.18c0.44-0.71,0.86-1.38,1.24-2c0.77-1.23,1.42-2.28,1.95-3.13
								c0.53-0.83,0.93-1.47,1.21-1.92C677.74,173.53,677.89,173.32,677.89,173.32z"/>
						</g>
					</g>
				</g>
				<g>
					<g>
						<g>
							<path class="st10" d="M517.32,262.83c-0.01,0.01-0.07-0.06-0.18-0.2c-0.13-0.16-0.29-0.37-0.49-0.62
								c-0.44-0.58-1.06-1.39-1.83-2.41c-0.4-0.53-0.84-1.11-1.32-1.75c-0.46-0.65-0.93-1.39-1.45-2.16
								c-1.02-1.57-2.26-3.3-3.39-5.37c-0.59-1.02-1.21-2.09-1.85-3.2c-0.64-1.12-1.2-2.33-1.83-3.56
								c-1.31-2.44-2.44-5.18-3.69-8.03c-2.32-5.77-4.48-12.28-6.07-19.29c-1.53-7.03-2.34-13.84-2.69-20.05
								c-0.08-3.11-0.22-6.07-0.07-8.83c0.05-1.38,0.05-2.72,0.15-4c0.11-1.28,0.22-2.51,0.32-3.68c0.15-2.35,0.54-4.45,0.79-6.3
								c0.14-0.92,0.25-1.79,0.39-2.57c0.16-0.78,0.31-1.49,0.45-2.14c0.27-1.25,0.48-2.24,0.64-2.96c0.07-0.31,0.13-0.56,0.18-0.77
								c0.04-0.17,0.07-0.26,0.08-0.26c0.01,0,0,0.09-0.03,0.27c-0.03,0.2-0.08,0.46-0.13,0.78c-0.13,0.72-0.31,1.71-0.54,2.97
								c-0.12,0.65-0.26,1.36-0.4,2.15c-0.13,0.79-0.22,1.65-0.35,2.57c-0.23,1.85-0.59,3.94-0.71,6.29
								c-0.09,1.17-0.19,2.39-0.28,3.67c-0.09,1.28-0.08,2.61-0.12,3.99c-0.13,2.76,0.02,5.7,0.11,8.8
								c0.37,6.19,1.19,12.97,2.72,19.96c1.59,6.98,3.72,13.46,6.01,19.22c1.23,2.84,2.34,5.57,3.63,8.01
								c0.63,1.23,1.18,2.44,1.8,3.56c0.63,1.11,1.24,2.18,1.81,3.2c1.11,2.07,2.32,3.81,3.31,5.39c0.51,0.78,0.96,1.52,1.41,2.18
								c0.46,0.64,0.89,1.24,1.28,1.77c0.74,1.04,1.33,1.87,1.75,2.46c0.18,0.26,0.33,0.48,0.45,0.65
								C517.28,262.75,517.33,262.83,517.32,262.83z"/>
						</g>
					</g>
				</g>
				<g>
					<g>
						<g>
							<path class="st5" d="M469.7,210.36l-106.32,22.01c0,0-0.48,10.38,2.13,10.47c2.18,0.07,81.24-14.2,106.88-18.84
								c4.19-0.76,6.69-5.07,5.3-9.1l0,0C476.54,211.6,473.13,209.65,469.7,210.36z"/>
						</g>
					</g>
				</g>
			</g>
			<g>
				<g>
					<g>
						
							<ellipse transform="matrix(1.408490e-03 -1 1 1.408490e-03 349.8231 751.4003)" class="st13" cx="551.14" cy="200.54" rx="23.62" ry="25.41"/>
					</g>
				</g>
				<g>
					<g>
						<g>
							<path class="st10" d="M576.56,200.58c-0.01,0-0.03-0.13-0.05-0.4c-0.02-0.29-0.05-0.67-0.09-1.16
								c-0.02-0.26-0.04-0.54-0.06-0.86c-0.05-0.31-0.11-0.65-0.18-1.02c-0.06-0.37-0.13-0.77-0.21-1.19
								c-0.09-0.42-0.24-0.86-0.36-1.32c-0.22-0.95-0.66-1.94-1.09-3.03c-0.53-1.05-1.08-2.21-1.88-3.34
								c-1.53-2.28-3.69-4.62-6.56-6.57c-2.85-1.93-6.39-3.54-10.42-4.16c-1.01-0.14-2.03-0.32-3.08-0.32
								c-0.52-0.02-1.05-0.07-1.59-0.06c-0.53,0.03-1.07,0.05-1.61,0.08l-0.81,0.04l-0.81,0.12c-0.54,0.08-1.09,0.15-1.64,0.23
								c-0.54,0.13-1.09,0.26-1.63,0.39l-0.82,0.2l-0.81,0.28c-4.33,1.39-8.56,4.05-11.7,7.9c-3.22,3.78-5.1,8.87-5.17,14.12
								c0.05,5.26,1.92,10.35,5.13,14.14c3.13,3.86,7.35,6.53,11.68,7.94l0.81,0.28l0.82,0.2c0.55,0.13,1.09,0.26,1.63,0.39
								c0.55,0.08,1.1,0.16,1.64,0.24l0.81,0.12l0.81,0.04c0.54,0.03,1.08,0.05,1.61,0.08c0.53,0.01,1.06-0.04,1.59-0.05
								c1.05,0,2.07-0.18,3.08-0.32c4.03-0.61,7.57-2.2,10.43-4.13c2.87-1.94,5.04-4.27,6.57-6.55c0.8-1.12,1.36-2.28,1.89-3.33
								c0.44-1.09,0.88-2.08,1.1-3.03c0.13-0.47,0.27-0.9,0.37-1.32c0.07-0.42,0.14-0.82,0.21-1.19c0.07-0.37,0.13-0.71,0.18-1.02
								c0.02-0.31,0.04-0.6,0.06-0.86c0.04-0.49,0.07-0.88,0.09-1.16C576.53,200.71,576.55,200.58,576.56,200.58
								c0.01,0,0.01,0.13,0,0.4c-0.01,0.29-0.02,0.68-0.04,1.17c-0.01,0.26-0.02,0.55-0.04,0.86c-0.05,0.32-0.1,0.66-0.16,1.03
								c-0.06,0.37-0.12,0.77-0.19,1.2c-0.09,0.42-0.22,0.87-0.35,1.34c-0.21,0.96-0.64,1.96-1.07,3.08
								c-0.52,1.07-1.07,2.25-1.87,3.39c-1.53,2.32-3.71,4.7-6.61,6.69c-2.89,1.97-6.48,3.61-10.57,4.25
								c-1.02,0.15-2.06,0.32-3.13,0.33c-0.53,0.02-1.07,0.07-1.61,0.06c-0.54-0.03-1.09-0.05-1.64-0.08l-0.83-0.04l-0.83-0.12
								c-0.55-0.08-1.11-0.16-1.67-0.24c-0.55-0.13-1.11-0.26-1.66-0.39l-0.84-0.2l-0.82-0.28c-4.41-1.42-8.72-4.13-11.92-8.07
								c-3.29-3.87-5.21-9.09-5.26-14.47c0.07-5.38,2-10.59,5.3-14.45c3.21-3.93,7.53-6.63,11.94-8.03l0.82-0.28l0.84-0.2
								c0.56-0.13,1.11-0.26,1.66-0.39c0.56-0.08,1.12-0.16,1.67-0.23l0.83-0.11l0.83-0.04c0.55-0.02,1.1-0.05,1.64-0.07
								c0.54-0.01,1.08,0.04,1.61,0.06c1.07,0.01,2.11,0.2,3.13,0.34c4.09,0.65,7.67,2.3,10.56,4.28c2.89,2,5.07,4.39,6.59,6.71
								c0.8,1.14,1.34,2.33,1.86,3.4c0.43,1.11,0.85,2.12,1.06,3.08c0.12,0.47,0.26,0.92,0.34,1.34c0.07,0.43,0.13,0.83,0.18,1.2
								c0.06,0.37,0.11,0.71,0.15,1.03c0.01,0.32,0.02,0.6,0.03,0.86c0.02,0.49,0.03,0.88,0.04,1.17
								C576.57,200.44,576.56,200.58,576.56,200.58z"/>
						</g>
					</g>
				</g>
			</g>
			<g>
				<g>
					<g>
						<path class="st14" d="M570.61,210.27"/>
					</g>
				</g>
			</g>
		</g>
	</g>
	<g>
		<g>
			<g>
				<path class="st5" d="M250.54,285.92c-2.93,1.3-6.29,1.14-9.47,0.78c-3.19-0.36-6.43-0.88-9.57-0.26
					c-4.88,0.96-9.18,4.64-14.15,4.38c-6.89-0.36-11.01-7.78-17.09-11.04c-7.4-3.97-17.33-1.5-23.29-8.86
					c-3.6-4.45-4.21-10.76-1.43-15.76c4.33-7.78,14.3-9.08,22.13-6.26c6.71,2.41,12.2,7.3,17.43,12.14c1.78,1.64,3.56,3.31,5.4,4.9
					c5.93,5.13,13.73,7.56,21.53,6.78l0,0c3.76-0.37,7.5,0.73,10.44,3.05c0.8,0.63,1.42,1.46,1.82,2.39l0,0
					c0.4,0.91,0.62,1.9,0.52,2.88C254.57,283.45,252.92,284.87,250.54,285.92z"/>
			</g>
		</g>
	</g>
	<g>
		<g>
			<g>
				<path class="st15" d="M137.39,282.6c-1.98-3.47-8.03-3.55-11.62-1.8c-3.59,1.75-6.07,5.12-8.51,8.29
					c-2.44,3.17-5.18,6.41-8.96,7.7c-4.06,1.39-8.5,0.28-12.79,0.31c-4.29,0.04-9.33,2.08-9.97,6.33c-0.36,2.4,0.35,5.2,2.14,6.84
					c1.79,1.64,3.67,2.91,5.92,3.83c5.47,2.24,12.12,3.57,18.03,3.52c7.9-0.07,15.66-4.05,20.32-10.43
					C136.61,300.83,142.86,289.73,137.39,282.6"/>
			</g>
		</g>
	</g>
	<g>
		<g>
			<g>
				<path class="st16" d="M28.39,303.02c-1.76,0.72-3.47,1.67-4.68,3.13c-1.2,1.46-1.82,3.52-1.19,5.31s2.71,3.06,4.51,2.44
					c0.95-0.33,1.73-1.1,2.72-1.27c1.58-0.26,2.96,1.1,4.54,1.38c2.35,0.41,4.56-1.95,4.54-4.34c-0.02-2.39-1.96-4.19-3.89-5.6
					C32.41,302.21,29.33,302.69,28.39,303.02"/>
			</g>
		</g>
	</g>
	<g>
		<g>
			<g>
				<polyline class="st7" points="547.35,283.56 539.41,265.13 556.34,257.8 562.23,280.92 548.06,283.56 				"/>
			</g>
		</g>
		<g>
			<g>
				<g>
					<g>
						<g>
							<g>
								<path d="M562.22,277.92l4.96,16.14c0,0,18.07,0.38,19.28,3.28l-30.96,10.73l-8.75-24.84L562.22,277.92z"/>
							</g>
						</g>
					</g>
				</g>
				<g class="st8">
					<g>
						<g>
							<g>
								<g>
									<path class="st9" d="M557.14,296.04c-0.54,0.37-0.72,1.19-0.37,1.75c0.35,0.56,1.18,0.75,1.73,0.39
										c0.55-0.36,0.8-1.34,0.39-1.85c-0.41-0.51-1.4-0.69-1.84-0.2"/>
								</g>
							</g>
						</g>
					</g>
				</g>
				<g class="st8">
					<g>
						<g>
							<g>
								<path class="st9" d="M555.5,308.08l-0.78-2.54l29.98-9.34c0,0,1.59,0.12,1.77,1.15L555.5,308.08z"/>
							</g>
						</g>
					</g>
				</g>
				<g>
					<g>
						<g>
							<g>
								<g>
									<path class="st10" d="M567.63,293.73c0.05,0.15-0.68,0.48-1.26,1.23c-0.59,0.73-0.75,1.52-0.91,1.51
										c-0.15,0.02-0.24-0.96,0.47-1.85C566.64,293.72,567.61,293.58,567.63,293.73z"/>
								</g>
							</g>
						</g>
					</g>
				</g>
				<g>
					<g>
						<g>
							<g>
								<g>
									<path class="st10" d="M571.34,293.95c0.09,0.13-0.48,0.62-0.77,1.44c-0.32,0.81-0.21,1.54-0.36,1.59
										c-0.13,0.07-0.55-0.78-0.16-1.79C570.42,294.18,571.29,293.81,571.34,293.95z"/>
								</g>
							</g>
						</g>
					</g>
				</g>
				<g>
					<g>
						<g>
							<g>
								<g>
									<path class="st10" d="M574.53,297.2c-0.13,0.08-0.6-0.6-0.5-1.56c0.09-0.96,0.69-1.54,0.8-1.43
										c0.13,0.09-0.18,0.7-0.25,1.49C574.5,296.48,574.68,297.13,574.53,297.2z"/>
								</g>
							</g>
						</g>
					</g>
				</g>
				<g>
					<g>
						<g>
							<g>
								<g>
									<path class="st10" d="M566.09,290.18c-0.02,0.16-0.78,0.19-1.62,0.55c-0.84,0.34-1.41,0.85-1.53,0.75
										c-0.13-0.08,0.33-0.86,1.32-1.27C565.25,289.8,566.12,290.04,566.09,290.18z"/>
								</g>
							</g>
						</g>
					</g>
				</g>
			</g>
			<g>
				<g>
					<g>
						<g>
							<g>
								<path class="st10" d="M565.03,286.94c0.02,0.06-0.54,0.36-1.55,0.53c-0.5,0.08-1.12,0.12-1.79,0.06
									c-0.34-0.03-0.69-0.08-1.05-0.16c-0.17-0.04-0.38-0.08-0.59-0.2c-0.22-0.1-0.46-0.47-0.35-0.78
									c0.08-0.29,0.32-0.49,0.54-0.58c0.23-0.09,0.43-0.1,0.61-0.12c0.37-0.04,0.74-0.03,1.08,0c0.68,0.06,1.28,0.24,1.76,0.44
									c0.95,0.42,1.39,0.9,1.35,0.94c-0.05,0.07-0.56-0.28-1.49-0.57c-0.46-0.15-1.02-0.27-1.65-0.3
									c-0.32-0.01-0.65-0.01-0.99,0.03c-0.36,0.03-0.64,0.12-0.67,0.3c-0.01,0.07-0.01,0.09,0.09,0.16
									c0.1,0.06,0.26,0.1,0.44,0.15c0.34,0.08,0.67,0.14,0.98,0.18c0.63,0.08,1.21,0.08,1.7,0.05
									C564.41,287.02,565,286.86,565.03,286.94z"/>
							</g>
						</g>
					</g>
				</g>
			</g>
			<g>
				<g>
					<g>
						<g>
							<g>
								<path class="st10" d="M564.91,287.23c-0.05,0.04-0.53-0.4-0.93-1.36c-0.19-0.48-0.35-1.08-0.38-1.77
									c-0.01-0.34,0.01-0.71,0.07-1.08c0.08-0.37,0.15-0.86,0.72-1.13c0.3-0.12,0.64,0.03,0.8,0.21c0.17,0.17,0.26,0.35,0.36,0.51
									c0.18,0.34,0.3,0.7,0.36,1.04c0.13,0.69,0.05,1.33-0.11,1.83c-0.33,1.01-0.9,1.41-0.93,1.36c-0.08-0.06,0.35-0.53,0.54-1.46
									c0.1-0.46,0.13-1.03-0.01-1.63c-0.07-0.3-0.18-0.6-0.34-0.89c-0.16-0.31-0.38-0.53-0.49-0.46c-0.15,0.05-0.33,0.39-0.37,0.7
									c-0.06,0.33-0.09,0.66-0.09,0.97c0,0.63,0.1,1.19,0.24,1.65C564.62,286.67,564.98,287.18,564.91,287.23z"/>
							</g>
						</g>
					</g>
				</g>
			</g>
		</g>
		<g>
			<g>
				<path class="st5" d="M466.37,140.4c0,0-14.67,29.05-4.81,35.86c9.86,6.81,55.91,41.42,55.91,41.42l23.49,62.69l21.99-9.01
					l-18.33-73.42l-46.27-41.56L466.37,140.4z"/>
			</g>
		</g>
		<g>
			<g>
				<g>
					<path class="st11" d="M522.88,206.15c0.13,0.1-1.39,2.12-2.52,4.98c-1.16,2.85-1.45,5.37-1.61,5.35c-0.13,0-0.07-2.6,1.12-5.54
						C521.04,207.99,522.79,206.06,522.88,206.15z"/>
				</g>
			</g>
		</g>
		<g>
			<g>
				<g>
					<path class="st11" d="M519.23,205.55c0.15,0.04-0.51,2.43-0.73,5.44c-0.25,3.01,0.03,5.47-0.12,5.49
						c-0.13,0.03-0.65-2.45-0.4-5.53C518.21,207.86,519.11,205.5,519.23,205.55z"/>
				</g>
			</g>
		</g>
		<g>
			<g>
				<g>
					<path class="st11" d="M543.18,279.45c-0.01,0-0.06-0.1-0.14-0.31c-0.09-0.23-0.22-0.54-0.38-0.93
						c-0.33-0.85-0.81-2.07-1.41-3.63c-1.22-3.16-2.96-7.76-5.08-13.5c-2.11-5.75-4.63-12.63-7.26-20.41
						c-0.66-1.94-1.31-3.95-1.95-6.01c-0.62-2.08-1.22-4.17-2.08-6.25c-1.67-4.16-3.69-8.39-5.88-12.67l0.06,0.08
						c-2.47-2.09-5.08-4.29-7.75-6.49c-2.09-1.71-4.16-3.4-6.25-5c-2.1-1.59-4.17-3.16-6.2-4.71c-4.06-3.09-7.98-6.05-11.81-8.76
						c-3.81-2.73-7.58-5.09-11.02-7.46c-3.44-2.37-6.56-4.73-9.08-7.25c-1.26-1.26-2.37-2.57-3.21-3.94
						c-0.85-1.37-1.42-2.81-1.76-4.19c-0.67-2.78-0.45-5.27-0.09-7.22c0.39-1.95,0.9-3.42,1.28-4.39c0.18-0.49,0.35-0.85,0.45-1.1
						c0.11-0.25,0.17-0.37,0.17-0.37c0.01,0-0.03,0.13-0.12,0.39c-0.09,0.25-0.24,0.62-0.4,1.12c-0.35,0.98-0.82,2.45-1.17,4.39
						c-0.32,1.93-0.51,4.4,0.17,7.11c0.34,1.35,0.91,2.75,1.76,4.08c0.84,1.34,1.94,2.62,3.19,3.86c2.51,2.48,5.63,4.81,9.06,7.15
						c3.44,2.34,7.23,4.7,11.05,7.43c3.84,2.7,7.77,5.66,11.84,8.75c2.03,1.54,4.1,3.11,6.2,4.7c2.1,1.6,4.18,3.29,6.27,5.01
						c2.68,2.2,5.29,4.4,7.76,6.5l0.04,0.03l0.02,0.04c2.2,4.3,4.21,8.53,5.88,12.73c0.86,2.09,1.47,4.24,2.08,6.29
						c0.63,2.06,1.28,4.06,1.93,6.01c2.6,7.78,5.08,14.67,7.15,20.43c2.09,5.73,3.77,10.34,4.94,13.55c0.57,1.57,1.02,2.8,1.33,3.66
						c0.14,0.4,0.25,0.71,0.33,0.95C543.16,279.34,543.19,279.45,543.18,279.45z"/>
				</g>
			</g>
		</g>
	</g>
	<g>
		<g>
			<polygon class="st5" points="478.33,146.06 512.82,153.71 527.36,157.41 507.46,164.55 			"/>
		</g>
	</g>
	<g>
		<g>
			<g>
				<path class="st10" d="M449.74,147.64c0.03,0.03-0.18,0.27-0.59,0.68c-0.4,0.42-1.02,0.98-1.82,1.64
					c-1.6,1.31-4.01,2.89-6.93,4.12c-2.92,1.22-5.75,1.82-7.8,2.04c-1.03,0.11-1.86,0.16-2.44,0.14c-0.58-0.01-0.9-0.02-0.9-0.06
					c0-0.09,1.27-0.14,3.29-0.45c2.02-0.31,4.78-0.96,7.65-2.15c2.87-1.2,5.27-2.71,6.91-3.93
					C448.75,148.45,449.68,147.57,449.74,147.64z"/>
			</g>
		</g>
	</g>
	<g>
		<g>
			<g>
				<path class="st12" d="M470.1,106.12l-5.46,41.12c0,0,18.18-1.18,31.01,3.07c12.82,4.26,20.7,4.14,20.7,4.14l-2.68-25.58
					l9.57-20.96l4.21,24.55l19.66,20.24l12.81-2.9l-13.27-22.24l-9.22-45.32c0-0.02-0.01-0.03-0.01-0.05
					c-0.77-3.77-2.83-7.17-5.8-9.62l-0.37-0.3l-19.3-10.76l-6.48,0.13c-7.15,0.19-12.66,0.97-16.33,1.67
					c-3.27,0.63-6.56,2.29-8.83,4.73l0,0c-1.59,1.71-3.63,4.89-4.5,8.41L470.1,106.12z"/>
			</g>
		</g>
		<g>
			<g>
				<g>
					<path class="st10" d="M531.41,88.92c0.03,0.01-0.14,0.48-0.47,1.32c-0.38,0.92-0.88,2.11-1.47,3.52
						c-1.26,2.97-3.03,7.05-5.01,11.55c-1.98,4.45-3.77,8.47-5.12,11.5c-0.64,1.39-1.17,2.56-1.59,3.47
						c-0.39,0.82-0.59,1.25-0.63,1.25c-0.04,0.01,0.11-0.5,0.44-1.33c0.33-0.84,0.82-2.05,1.44-3.54c1.24-2.97,3.01-7.06,4.99-11.57
						c1.98-4.5,3.8-8.56,5.15-11.49c0.65-1.39,1.19-2.55,1.62-3.46C531.14,89.35,531.38,88.91,531.41,88.92z"/>
				</g>
			</g>
		</g>
		<g>
			<g>
				<g>
					<path class="st12" d="M476.89,81.76c3.76,10.47,10.99,34.41,14.52,43.63c1.08,2.81,2.88,5.27,5.24,7.14l39.02,27.59l9.02-11.71
						l-29.23-28.2l-15.75-46.69c-2.22-6.24-11.43-9.61-17.15-6.28l0,0C478.14,69.81,475.17,76.96,476.89,81.76z"/>
				</g>
			</g>
			<g>
				<g>
					<g>
						<path class="st10" d="M500.39,75.46c0,0,0.12,0.27,0.31,0.81c0.2,0.56,0.47,1.35,0.83,2.37c0.72,2.11,1.78,5.16,3.11,9.05
							c2.66,7.83,6.46,19.01,11.03,32.45l-0.06-0.09c8.57,8.26,18.55,17.87,29.26,28.17l0.17,0.16l-0.14,0.18
							c-2.07,2.69-4.26,5.54-6.48,8.42c-0.87,1.13-1.73,2.25-2.53,3.29l-0.15,0.2l-0.2-0.15c-10.65-7.67-20.76-14.96-29.94-21.57
							c-2.29-1.65-4.53-3.26-6.69-4.83c-0.54-0.39-1.08-0.78-1.61-1.17c-0.53-0.37-1.07-0.77-1.55-1.23
							c-0.97-0.89-1.8-1.9-2.49-2.97c-0.69-1.06-1.21-2.22-1.63-3.35c-0.44-1.13-0.87-2.23-1.29-3.32c-0.82-2.18-1.6-4.27-2.32-6.27
							c-2.88-8.01-4.99-14.55-6.43-19.06c-0.7-2.25-1.24-4-1.62-5.21c-0.17-0.58-0.31-1.03-0.4-1.36c-0.09-0.31-0.12-0.47-0.12-0.47
							s0.07,0.15,0.17,0.45c0.11,0.32,0.26,0.77,0.45,1.34c0.4,1.2,0.97,2.95,1.71,5.18c1.5,4.5,3.66,11.01,6.58,19
							c0.73,2,1.51,4.08,2.35,6.25c0.42,1.08,0.86,2.18,1.3,3.31c0.43,1.13,0.93,2.23,1.61,3.27c0.67,1.04,1.48,2.01,2.42,2.87
							c0.46,0.44,0.98,0.82,1.52,1.2c0.54,0.38,1.07,0.77,1.62,1.16c2.17,1.56,4.41,3.16,6.71,4.81c9.18,6.6,19.3,13.86,29.96,21.52
							l-0.36,0.05c0.8-1.04,1.67-2.16,2.53-3.29c2.22-2.88,4.41-5.73,6.48-8.42l0.03,0.34c-10.68-10.32-20.64-19.95-29.2-28.22
							l-0.04-0.04l-0.02-0.05c-4.5-13.47-8.23-24.67-10.85-32.51c-1.29-3.9-2.3-6.97-3-9.09c-0.33-1.03-0.59-1.83-0.77-2.4
							C500.46,75.74,500.39,75.46,500.39,75.46z"/>
					</g>
				</g>
			</g>
		</g>
		<g>
			<g>
				<g>
					<path class="st10" d="M496.67,69.76c-0.06,0.06-0.71-0.62-1.99-1.41c-1.26-0.79-3.21-1.61-5.47-1.72
						c-2.27-0.11-4.29,0.53-5.61,1.19c-1.34,0.66-2.05,1.28-2.11,1.21c-0.04-0.04,0.6-0.77,1.94-1.54c1.32-0.77,3.43-1.5,5.81-1.39
						c2.38,0.12,4.41,1.04,5.65,1.94C496.14,68.94,496.71,69.73,496.67,69.76z"/>
				</g>
			</g>
		</g>
		<g>
			<g>
				<g>
					<path class="st10" d="M547.48,128.13c-0.02,0.16-1.85-0.03-4,0.5c-2.16,0.51-3.7,1.52-3.79,1.38
						c-0.09-0.09,1.39-1.35,3.66-1.89C545.63,127.56,547.52,128,547.48,128.13z"/>
				</g>
			</g>
		</g>
		<g>
			<g>
				<g>
					<path class="st13" d="M481.99,97.52c0,0.01-0.14,0.05-0.39,0.1c-0.25,0.06-0.62,0.11-1.08,0.17c-0.92,0.1-2.22,0.11-3.6-0.23
						c-1.38-0.35-2.52-0.98-3.28-1.5c-0.38-0.26-0.68-0.49-0.87-0.66c-0.2-0.17-0.3-0.27-0.29-0.28c0.05-0.1,1.77,1.54,4.5,2.23
						C479.7,98.01,482,97.41,481.99,97.52z"/>
				</g>
			</g>
		</g>
		<g>
			<g>
				<g>
					<path class="st13" d="M485.03,106.44c-0.03,0.04-0.65-0.52-1.85-1.09c-1.19-0.59-2.97-1.12-4.98-1.27
						c-2.02-0.16-3.86,0-5.19,0.12c-0.56,0.05-1.08,0.1-1.57,0.14c-0.37,0.03-0.58,0.04-0.58,0.03c0-0.01,0.2-0.05,0.57-0.11
						c0.37-0.06,0.9-0.13,1.57-0.21c1.32-0.15,3.17-0.34,5.22-0.18c2.04,0.16,3.85,0.72,5.03,1.35c0.6,0.31,1.05,0.61,1.34,0.84
						C484.89,106.29,485.04,106.43,485.03,106.44z"/>
				</g>
			</g>
		</g>
		<g class="st17">
			<g>
				<g>
					<path d="M479.99,91.29c0,0,1.05,15.64,2.17,22.87c1.12,7.22,3.45,14.59,8.63,19.76c5.21,5.21,12.63,7.51,19.85,8.97
						c-2.33-1.76-4.62-3.57-6.86-5.44c-2.89-2.41-7.14-4.75-9.46-7.71c-4.48-5.69-5.45-12.88-7.76-19.75
						C484.43,103.65,482.12,97.62,479.99,91.29"/>
				</g>
			</g>
		</g>
		<g>
			<g>
				<g>
					<path class="st13" d="M507.16,97.43c0,0-0.26,0.21-0.83,0.41c-0.56,0.21-1.42,0.4-2.49,0.37c-2.15,0.03-5-1.01-8.24-0.7
						c-3.23,0.22-6,1.41-7.79,2.5c-0.91,0.54-1.58,1.08-2.05,1.44c-0.19,0.16-0.36,0.3-0.52,0.44c-0.12,0.1-0.19,0.15-0.19,0.14
						c0,0,0.87-1.01,2.69-2.15c1.79-1.13,4.58-2.36,7.85-2.58c3.29-0.31,6.15,0.76,8.26,0.77c1.06,0.05,1.91-0.11,2.46-0.3
						C506.86,97.59,507.14,97.4,507.16,97.43z"/>
				</g>
			</g>
		</g>
		<g>
			<g>
				<g>
					<path class="st13" d="M504.25,89.84c0,0.01-0.06,0.05-0.19,0.13c-0.18,0.1-0.37,0.21-0.57,0.33c-0.5,0.29-1.24,0.67-2.17,1.11
						c-1.86,0.88-4.53,1.92-7.6,2.65c-3.07,0.72-5.92,1-7.98,1.05c-1.03,0.03-1.86,0.02-2.44-0.02c-0.24-0.01-0.45-0.03-0.66-0.04
						c-0.15-0.01-0.23-0.02-0.23-0.03c0-0.01,0.08-0.01,0.23-0.01c0.21,0,0.43,0,0.66,0c0.57,0.01,1.41,0,2.43-0.05
						c2.05-0.09,4.88-0.39,7.93-1.11c3.05-0.73,5.71-1.73,7.58-2.58c0.94-0.42,1.69-0.78,2.2-1.05c0.21-0.11,0.41-0.2,0.59-0.3
						C504.17,89.86,504.25,89.83,504.25,89.84z"/>
				</g>
			</g>
		</g>
		<g>
			<g>
				<g>
					<path class="st13" d="M526.4,98.04c0,0.01-0.09-0.01-0.27-0.06c-0.18-0.04-0.44-0.12-0.75-0.26c-0.64-0.27-1.53-0.77-2.44-1.61
						c-1.9-1.62-3.65-4.66-6.6-7.01c-2.93-2.37-6.17-3.65-8.55-4.22c-1.19-0.3-2.19-0.42-2.87-0.51c-0.29-0.03-0.55-0.05-0.79-0.07
						c-0.18-0.02-0.28-0.03-0.28-0.04c0,0,1.55-0.07,3.97,0.48c2.41,0.54,5.69,1.8,8.65,4.2c1.48,1.18,2.69,2.55,3.71,3.82
						c1.03,1.27,1.96,2.41,2.86,3.24c0.89,0.85,1.76,1.36,2.38,1.65C526.03,97.93,526.41,98.01,526.4,98.04z"/>
				</g>
			</g>
		</g>
		<g>
			<g>
				<g>
					<path class="st13" d="M525.23,102.81c0,0-0.3-0.06-0.83-0.24c-0.52-0.21-1.25-0.59-2.02-1.23c-0.78-0.63-1.59-1.52-2.45-2.51
						c-0.86-0.99-1.8-2.1-2.98-3.04c-1.18-0.93-2.55-1.48-3.84-1.65c-1.29-0.2-2.48-0.15-3.47-0.07c-0.99,0.08-1.79,0.21-2.34,0.28
						c-0.23,0.03-0.44,0.06-0.64,0.09c-0.15,0.02-0.22,0.02-0.22,0.02c0-0.01,0.07-0.03,0.22-0.06c0.2-0.04,0.41-0.08,0.63-0.13
						c0.55-0.1,1.34-0.25,2.34-0.35c0.99-0.1,2.19-0.17,3.51,0.02c1.32,0.17,2.73,0.73,3.94,1.68c1.2,0.96,2.14,2.08,3,3.08
						c0.85,1,1.64,1.88,2.4,2.52c0.75,0.65,1.46,1.04,1.96,1.26C524.94,102.7,525.23,102.79,525.23,102.81z"/>
				</g>
			</g>
		</g>
		<g>
			<g>
				<g>
					<path class="st13" d="M540.55,99.59c-0.01,0.05-0.83-0.33-2.22-0.22c-0.69,0.05-1.5,0.23-2.37,0.53
						c-0.87,0.3-1.78,0.74-2.75,1.18c-0.97,0.44-1.93,0.82-2.84,1.02c-0.91,0.2-1.77,0.23-2.47,0.13c-0.7-0.1-1.24-0.32-1.58-0.52
						c-0.34-0.2-0.5-0.36-0.5-0.36c0.02-0.05,0.71,0.57,2.1,0.73c0.68,0.08,1.52,0.04,2.41-0.17c0.89-0.21,1.83-0.59,2.8-1.03
						c0.97-0.44,1.89-0.87,2.78-1.17c0.88-0.3,1.71-0.46,2.42-0.5c0.71-0.03,1.28,0.05,1.66,0.16
						C540.36,99.48,540.55,99.59,540.55,99.59z"/>
				</g>
			</g>
		</g>
		<g>
			<g>
				<g>
					<path class="st13" d="M542.13,105.03c-0.02,0.07-0.89-0.88-2.76-0.97c-0.91-0.05-2.01,0.12-3.14,0.57
						c-1.13,0.45-2.25,1.18-3.41,1.99c-1.16,0.8-2.27,1.58-3.39,2.11c-1.12,0.53-2.22,0.8-3.15,0.84c-0.94,0.05-1.69-0.12-2.18-0.32
						c-0.49-0.2-0.71-0.38-0.71-0.38c0.01-0.07,1.02,0.69,2.88,0.55c0.91-0.06,1.99-0.35,3.08-0.87c1.09-0.53,2.19-1.3,3.35-2.11
						c1.16-0.8,2.3-1.55,3.46-1.99c1.15-0.45,2.28-0.6,3.22-0.53c0.94,0.07,1.66,0.35,2.11,0.62
						C541.94,104.81,542.13,105.03,542.13,105.03z"/>
				</g>
			</g>
		</g>
		<g class="st17">
			<g>
				<g>
					<path d="M525.5,121.13c2.04-8.19,2.44-17.06,2.73-25.49c-0.71,2.95-2.52,5.5-3.64,8.32c-0.54,1.35-1.39,3.79-1.39,3.79
						l2.26,13.18"/>
				</g>
			</g>
		</g>
	</g>
	<g>
		<g>
			<g>
				<g>
					<g>
						<g>
							<g>
								<g>
									<g>
										<g>
											<g>
												<g>
													<g>
														<g>
															<g>
																<path class="st7" d="M511.3,76.99c-5.56-1.49-8.8-7.26-7.17-12.79l9.18-31.09c2.13-7.99,10.44-12.64,18.37-10.29
																	l0.72,0.26c7.24,2.62,11.27,10.36,9.24,17.79c-1.89,6.92-4.06,14.53-5.41,18.12c-2.79,7.43-10.67,5.89-10.67,5.89
																	l-1.94,5.57C521.84,75.53,516.48,78.37,511.3,76.99L511.3,76.99z"/>
															</g>
														</g>
													</g>
												</g>
											</g>
										</g>
									</g>
								</g>
							</g>
							<g>
								<g>
									<g>
										<g>
											<g>
												<g>
													<g>
														<g>
															<g>
																<path class="st18" d="M525.59,64.79c0,0-4.85-1.32-8.73-6.28c0,0,0.36,6.2,8.05,8.22L525.59,64.79z"/>
															</g>
														</g>
													</g>
												</g>
											</g>
										</g>
									</g>
								</g>
							</g>
						</g>
					</g>
				</g>
				<g>
					<g>
						<g>
							<path class="st12" d="M524.18,27.34c-0.61-1.34,2.44-5.96,1.4-7.01c-1.04-1.05-6.55,1-7.97,1.4
								c-1.48,0.42-2.66,1.54-3.19,2.98c-1.96,5.38-2.2,10.45-3.67,15.74c-0.1,0.35-0.19,0.72-0.09,1.07
								c0.28,0.9,1.26,1.22,2.19,1.35c2.29,0.33,3.46-1.34,4.54-3.35c0.24-0.45,0.75-3.21,0.79-3.72c0.33-3.57,2.39-6.75,5.62-8.3
								L524.18,27.34z"/>
						</g>
					</g>
					<g>
						<g>
							<path class="st10" d="M524.36,27.86"/>
						</g>
					</g>
				</g>
				<g>
					<g>
						<g>
							<g>
								<g>
									<g>
										<g>
											<g>
												<g>
													<g>
														<path class="st7" d="M514.6,37.4c-0.11-0.1-4.58-3.37-6.26,1.79c-1.68,5.16,3.85,5.78,3.9,5.64
															C512.29,44.69,514.6,37.4,514.6,37.4z"/>
													</g>
												</g>
											</g>
										</g>
									</g>
								</g>
							</g>
						</g>
					</g>
					<g>
						<g>
							<g>
								<g>
									<g>
										<g>
											<g>
												<g>
													<g>
														<g>
															<path class="st18" d="M511.3,42.36c-0.02-0.02-0.11,0.03-0.29,0.05c-0.17,0.02-0.44-0.02-0.68-0.21
																c-0.48-0.38-0.66-1.39-0.38-2.33c0.14-0.47,0.38-0.89,0.67-1.21c0.28-0.33,0.61-0.51,0.9-0.47
																c0.29,0.03,0.43,0.25,0.45,0.42c0.02,0.17-0.04,0.26-0.02,0.28c0.01,0.02,0.14-0.05,0.17-0.28
																c0.01-0.11-0.01-0.25-0.1-0.39c-0.09-0.14-0.26-0.25-0.45-0.29c-0.41-0.1-0.88,0.15-1.2,0.49
																c-0.34,0.34-0.62,0.8-0.78,1.34c-0.31,1.05-0.09,2.2,0.59,2.66c0.33,0.21,0.67,0.2,0.87,0.13
																C511.25,42.48,511.31,42.38,511.3,42.36z"/>
														</g>
													</g>
												</g>
											</g>
										</g>
									</g>
								</g>
							</g>
						</g>
					</g>
				</g>
				<g>
					<g>
						<path class="st12" d="M532.83,21.83c0,0-8.47-2.72-10.11-1.42c-4.39,3.49-0.53,8.09-0.53,8.09c2.54-1.74,5.16-0.88,6.91,0.14
							c1.75,1.02,3.23,2.46,5.03,3.39c1.8,0.93,6.34,4.7,7.94,3.47c1.19-0.92,0.05-5.98-0.38-7.42
							C540.24,23.11,532.83,21.83,532.83,21.83"/>
					</g>
				</g>
			</g>
		</g>
		<g>
			<g>
				<g>
					<g>
						<g>
							<g>
								<g>
									<g>
										<g>
											<g>
												<g>
													<g>
														<g>
															<g>
																<g>
																	<g>
																		<g>
																			<g>
																				<g>
																					<g>
																						<g>
																							<g>
																								<path class="st10" d="M536.66,44.47c-0.19,0.62-0.88,0.97-1.53,0.78c-0.65-0.19-1.03-0.84-0.83-1.46
																									c0.19-0.62,0.88-0.97,1.53-0.78C536.47,43.19,536.85,43.85,536.66,44.47z"/>
																							</g>
																						</g>
																					</g>
																				</g>
																			</g>
																		</g>
																	</g>
																</g>
															</g>
														</g>
													</g>
													<g>
														<g>
															<g>
																<g>
																	<g>
																		<g>
																			<g>
																				<g>
																					<g>
																						<g>
																							<g>
																								<g>
																									<path class="st10" d="M538.87,43.81c-0.2,0.1-0.85-0.86-2.1-1.29c-1.24-0.45-2.39-0.12-2.47-0.32
																										c-0.04-0.09,0.2-0.31,0.7-0.47c0.49-0.15,1.26-0.2,2.04,0.07c0.78,0.28,1.33,0.79,1.61,1.21
																										C538.93,43.45,538.96,43.77,538.87,43.81z"/>
																								</g>
																							</g>
																						</g>
																					</g>
																				</g>
																			</g>
																		</g>
																	</g>
																</g>
															</g>
														</g>
													</g>
												</g>
												<g>
													<g>
														<g>
															<g>
																<g>
																	<g>
																		<g>
																			<g>
																				<g>
																					<g>
																						<g>
																							<g>
																								<path class="st10" d="M524.29,40.91c-0.19,0.62-0.88,0.97-1.53,0.78c-0.65-0.19-1.03-0.84-0.83-1.46
																									c0.19-0.62,0.88-0.97,1.53-0.78C524.11,39.63,524.48,40.29,524.29,40.91z"/>
																							</g>
																						</g>
																					</g>
																				</g>
																			</g>
																		</g>
																	</g>
																</g>
															</g>
														</g>
													</g>
													<g>
														<g>
															<g>
																<g>
																	<g>
																		<g>
																			<g>
																				<g>
																					<g>
																						<g>
																							<g>
																								<g>
																									<path class="st10" d="M526.49,39.77c-0.2,0.1-0.85-0.86-2.1-1.29c-1.24-0.45-2.39-0.12-2.47-0.32
																										c-0.04-0.09,0.2-0.31,0.7-0.47c0.49-0.15,1.26-0.2,2.04,0.07c0.78,0.28,1.33,0.79,1.61,1.21
																										C526.55,39.41,526.59,39.73,526.49,39.77z"/>
																								</g>
																							</g>
																						</g>
																					</g>
																				</g>
																			</g>
																		</g>
																	</g>
																</g>
															</g>
														</g>
													</g>
												</g>
												<g>
													<g>
														<g>
															<g>
																<g>
																	<g>
																		<g>
																			<g>
																				<g>
																					<g>
																						<g>
																							<g>
																								<path class="st10" d="M527.81,50.63c0.02-0.07,0.84,0.06,2.16,0.34c0.33,0.08,0.66,0.12,0.78-0.08
																									c0.16-0.2,0.14-0.6,0.12-1.02c-0.03-0.88-0.06-1.8-0.1-2.76c-0.11-3.92-0.07-7.1,0.09-7.1
																									c0.16,0,0.37,3.17,0.48,7.09c0.02,0.96,0.04,1.88,0.06,2.76c-0.01,0.41,0.06,0.89-0.27,1.31
																									c-0.17,0.21-0.46,0.3-0.69,0.28c-0.23-0.01-0.41-0.07-0.57-0.11C528.58,50.97,527.79,50.7,527.81,50.63z"/>
																							</g>
																						</g>
																					</g>
																				</g>
																			</g>
																		</g>
																	</g>
																</g>
															</g>
														</g>
													</g>
												</g>
												<g>
													<g>
														<g>
															<g>
																<g>
																	<g>
																		<g>
																			<g>
																				<g>
																					<g>
																						<g>
																							<g>
																								<path class="st10" d="M523.83,50.22c0.21,0.06-0.26,1.42,0.57,2.79c0.82,1.37,2.32,1.72,2.27,1.91
																									c-0.01,0.09-0.41,0.15-1.03-0.04c-0.61-0.19-1.41-0.68-1.92-1.52c-0.5-0.84-0.53-1.73-0.39-2.31
																									C523.47,50.46,523.74,50.18,523.83,50.22z"/>
																							</g>
																						</g>
																					</g>
																				</g>
																			</g>
																		</g>
																	</g>
																</g>
															</g>
														</g>
													</g>
												</g>
											</g>
										</g>
									</g>
									<g>
										<g>
											<g>
												<g>
													<g>
														<g>
															<g>
																<g>
																	<g>
																		<g>
																			<g>
																				<path class="st10" d="M528.52,34.98c-0.24,0.3-1.43-0.3-2.96-0.63c-1.52-0.36-2.86-0.35-2.94-0.72
																					c-0.04-0.18,0.28-0.42,0.87-0.59c0.59-0.16,1.45-0.21,2.37-0.01c0.91,0.21,1.67,0.63,2.13,1.03
																					C528.45,34.48,528.63,34.84,528.52,34.98z"/>
																			</g>
																		</g>
																	</g>
																</g>
															</g>
														</g>
													</g>
												</g>
											</g>
										</g>
									</g>
									<g>
										<g>
											<g>
												<g>
													<g>
														<g>
															<g>
																<g>
																	<g>
																		<g>
																			<g>
																				<path class="st10" d="M539.67,40.03c-0.32,0.21-1.08-0.39-2.11-0.76c-1.02-0.41-1.98-0.47-2.08-0.84
																					c-0.04-0.17,0.2-0.41,0.68-0.55c0.47-0.14,1.18-0.14,1.88,0.13c0.7,0.27,1.23,0.74,1.49,1.16
																					C539.79,39.59,539.81,39.93,539.67,40.03z"/>
																			</g>
																		</g>
																	</g>
																</g>
															</g>
														</g>
													</g>
												</g>
											</g>
										</g>
									</g>
								</g>
							</g>
						</g>
					</g>
				</g>
			</g>
		</g>
	</g>
	<g>
		<g>
			<g>
				<path class="st7" d="M543.56,150.24c0,0,4.51,0.94,6.44,1.36c0.62,0.14,1.27,0.04,1.9,0.15c3.08,0.52,7.25,0.26,8.35-0.15
					c1.91-0.7,1.99,1.74-0.07,2.79c-2.06,1.05-3.33,1.16-3.33,1.16l4.96,3.99c0.26,0.21,0.43,0.5,0.47,0.83l1.27,8.8
					c0.14,0.74-0.25,1.52-0.97,1.74c-0.35,0.11-0.71,0.07-0.95-0.34l0.14,1.18c0.23,1.96-2.71,2.46-3.06,0.52
					c0-0.02-0.01-0.05-0.01-0.07l-1.75,0.99c0,0-1.16,1.2-2.41-0.47c-1.03-1.38-4.13-6.86-4.13-6.86s-13.18-5.55-12.97-7.77
					L543.56,150.24z"/>
			</g>
		</g>
		<g>
			<g>
				<g>
					<path class="st18" d="M558.72,172.28c-0.08,0-0.15-0.82-0.35-2.13c-0.2-1.3-0.58-3.13-0.84-5.13
						c-0.18-0.97-0.41-1.96-0.63-2.75c-0.14-0.36-0.39-0.63-0.71-0.81c-0.32-0.2-0.62-0.4-0.92-0.58c-1.12-0.72-1.8-1.2-1.76-1.26
						c0.04-0.06,0.78,0.3,1.95,0.94c0.31,0.17,0.63,0.35,0.95,0.53c0.37,0.19,0.75,0.54,0.93,1.01c0.28,0.9,0.5,1.81,0.7,2.83
						c0.27,2.04,0.58,3.83,0.69,5.18C558.84,171.44,558.79,172.27,558.72,172.28z"/>
				</g>
			</g>
		</g>
		<g>
			<g>
				<g>
					<path class="st18" d="M561.64,170.58c-0.2,0.04-0.53-3.16-1.34-6.97c-0.21-0.95-0.37-1.91-0.85-2.48
						c-0.55-0.61-1.13-1.12-1.62-1.52c-0.49-0.4-0.91-0.69-1.22-0.86c-0.31-0.17-0.5-0.21-0.49-0.25c0-0.03,0.22-0.05,0.57,0.07
						c0.35,0.12,0.83,0.37,1.36,0.75c0.54,0.38,1.14,0.86,1.75,1.5c0.65,0.75,0.78,1.74,1,2.69c0.44,1.93,0.63,3.71,0.75,5
						C561.67,169.77,561.69,170.58,561.64,170.58z"/>
				</g>
			</g>
		</g>
		<g>
			<g>
				<g>
					<path class="st18" d="M550.86,162.25c0.04-0.06,0.69,0.25,1.73,0.81c0.27,0.15,0.55,0.31,0.84,0.46
						c0.28,0.16,0.67,0.35,0.95,0.69c0.3,0.33,0.44,0.78,0.56,1.17c0.13,0.41,0.26,0.82,0.39,1.25c1.05,3.43,1.79,6.25,1.65,6.28
						c-0.14,0.04-1.1-2.7-2.14-6.12c-0.13-0.43-0.25-0.84-0.38-1.25c-0.12-0.42-0.22-0.77-0.44-1.03c-0.21-0.28-0.5-0.43-0.8-0.63
						c-0.28-0.18-0.54-0.35-0.81-0.52C551.41,162.73,550.82,162.31,550.86,162.25z"/>
				</g>
			</g>
		</g>
		<g>
			<g>
				<g>
					<path class="st18" d="M551.21,152.74c0.07-0.2,1.93,0.53,4.01,1.74c2.11,1.19,3.63,2.47,3.52,2.59
						c-0.08,0.09-1.69-0.96-3.78-2.14c-0.9-0.52-1.74-1-2.66-1.53C551.62,153.01,551.2,152.8,551.21,152.74z"/>
				</g>
			</g>
		</g>
	</g>
	<line class="st19" x1="309.46" y1="293" x2="310.18" y2="279.45"/>
	<path class="st16" d="M153.38,319.24c0.06-0.14,0.12-0.28,0.17-0.41c11.77,4.92,23.53,9.84,35.3,14.76
		c-1.71,3.24-3.42,6.47-5.13,9.71c-1.99,3.76-3.99,7.52-5.98,11.28c-1.74,3.28-3.47,6.56-5.19,9.84c-0.12,0.22-0.23,0.29-0.5,0.23
		c-5.14-1.05-10.29-2.08-15.43-3.12c-0.12-0.02-0.24-0.08-0.34-0.14c-4.35-2.93-8.7-5.87-13.06-8.8c-0.23-0.16-0.24-0.29-0.17-0.52
		c0.83-2.62,1.66-5.25,2.49-7.87c1.2-3.81,2.41-7.62,3.62-11.43c1.24-3.92,2.47-7.84,3.7-11.75
		C153.05,320.43,153.21,319.83,153.38,319.24z M160.57,355.8c0.13,0.04,0.22,0.08,0.32,0.1c2.52,0.51,5.05,1,7.57,1.54
		c0.43,0.09,0.61-0.04,0.79-0.4c1.52-2.9,3.06-5.79,4.59-8.68c0.29-0.54,0.57-1.09,0.87-1.67c-1.97-0.82-3.89-1.63-5.83-2.44
		c1.03-2.46,2.05-4.89,3.08-7.37c2.18,0.91,4.34,1.82,6.51,2.72c0.5-0.96,0.99-1.88,1.47-2.81c-3.27-1.37-6.48-2.71-9.71-4.06
		c-1.84,4.41-3.68,8.79-5.53,13.21c1.85,0.77,3.69,1.54,5.54,2.32c-0.05,0.13-0.08,0.22-0.13,0.31c-0.91,1.72-1.82,3.43-2.72,5.15
		c-0.1,0.18-0.21,0.2-0.39,0.16c-0.84-0.18-1.68-0.34-2.52-0.51c-0.89-0.18-1.77-0.35-2.67-0.53
		C161.39,353.83,160.99,354.79,160.57,355.8z M164.32,330.25c-2.73,6.52-5.44,13.01-8.16,19.52c-0.57-0.38-1.1-0.76-1.65-1.1
		c-0.25-0.15-0.25-0.3-0.17-0.55c0.3-0.88,0.57-1.77,0.85-2.66c-1-0.42-1.96-0.82-2.95-1.24c-0.57,1.81-1.13,3.59-1.67,5.38
		c-0.03,0.1,0.09,0.29,0.19,0.36c1.76,1.2,3.52,2.39,5.28,3.58c0.51,0.35,1.03,0.68,1.56,1.04c3.23-7.73,6.44-15.4,9.66-23.1
		C166.27,331.07,165.32,330.67,164.32,330.25z"/>
	<path class="st15" d="M111.33,213.38c-0.01-0.09-0.01-0.17-0.02-0.26c11.16-0.82,22.32-1.63,33.48-2.45
		c-0.13,1.89-0.26,3.79-0.39,5.68c-0.28,4.08-0.57,8.17-0.85,12.25c-0.26,3.78-0.52,7.56-0.77,11.34c-0.02,0.25-0.1,0.38-0.34,0.47
		c-3.9,1.61-7.79,3.24-11.69,4.86c-0.16,0.06-0.36,0.08-0.53,0.03c-4.08-1.03-8.16-2.07-12.24-3.09c-0.28-0.07-0.38-0.21-0.43-0.47
		c-0.14-0.72-0.31-1.43-0.46-2.14c-0.57-2.63-1.15-5.27-1.72-7.9c-0.58-2.64-1.16-5.29-1.73-7.93c-0.61-2.79-1.22-5.59-1.83-8.38
		C111.65,214.71,111.48,214.05,111.33,213.38z M120.07,229.32c4.65-0.34,9.27-0.68,13.92-1.02c-0.05,1.72-0.09,3.4-0.16,5.08
		c0,0.09-0.14,0.22-0.25,0.26c-1.19,0.4-2.38,0.8-3.57,1.18c-0.17,0.05-0.37,0.07-0.54,0.04c-1.09-0.21-2.18-0.44-3.27-0.65
		c-0.24-0.04-0.32-0.15-0.36-0.37c-0.19-0.93-0.39-1.85-0.59-2.78c-1.62,0.12-3.2,0.23-4.81,0.35c0.36,2.03,0.71,4.04,1.07,6.05
		c0.01,0.08,0.17,0.18,0.27,0.2c2.68,0.47,5.35,0.94,8.03,1.39c0.14,0.02,0.31,0.02,0.44-0.03c2.59-0.85,5.18-1.7,7.78-2.55
		c0.17-0.05,0.24-0.13,0.24-0.32c0.03-1.46,0.08-2.93,0.12-4.39c0.06-2.1,0.11-4.19,0.17-6.29c0.02-0.57,0.03-1.14,0.04-1.75
		c-2.5,0.18-4.94,0.36-7.48,0.55c0.17-0.11,0.26-0.17,0.35-0.22c2.47-1.47,4.93-2.94,7.4-4.4c0.19-0.11,0.27-0.22,0.25-0.46
		c-0.1-1.19-0.18-2.38-0.27-3.56c-0.01-0.1-0.02-0.21-0.02-0.31c-7,0.51-13.95,1.02-20.92,1.53c0.24,1.39,0.48,2.76,0.72,4.15
		c3.78-0.28,7.53-0.55,11.37-0.83c-0.18,0.11-0.28,0.18-0.37,0.24c-3.26,1.93-6.52,3.86-9.78,5.78c-0.21,0.13-0.28,0.25-0.24,0.49
		C119.76,227.54,119.91,228.4,120.07,229.32z"/>
	<path class="st9" d="M354.91,54.74c-128.93,0-257.85,0-387.28,0c0,129.25,0,258.27,0,387.29c-0.25-0.88-0.72-1.76-0.72-2.65
		c-0.05-14.87-0.03-29.74-0.03-44.61c0-113.53,0-227.07,0-340.79c1.95,0,3.91,0,5.86,0c126.26,0,252.52,0,378.78,0.03
		C352.64,54.01,353.78,54.48,354.91,54.74z"/>
	<g>
		<g>
			<path class="st16" d="M35.57,336.19c2.86,7.97,5.72,15.95,8.57,23.92c-7.97,2.86-15.95,5.72-23.92,8.57
				c-2.86-7.97-5.71-15.94-8.57-23.92C19.65,341.89,27.61,339.04,35.57,336.19z M13.68,345.72c2.51,6.99,5,13.96,7.5,20.92
				c6.99-2.5,13.96-5,20.92-7.5c-2.5-6.98-5-13.95-7.5-20.92C27.63,340.72,20.66,343.22,13.68,345.72z"/>
			<path class="st16" d="M18.15,349.28c0.55-0.26,1.08-0.55,1.64-0.77c0.98-0.39,1.98-0.76,2.98-1.08c0.83-0.26,1.7-0.34,2.57-0.14
				c1.12,0.26,1.94,0.92,2.43,1.94c0.57,1.18,0.73,2.4,0.16,3.63c-0.44,0.93-1.17,1.61-2.06,2.07c-0.65,0.34-1.35,0.57-2.03,0.85
				c-0.09,0.04-0.18,0.07-0.3,0.11c0.26,0.72,0.51,1.42,0.76,2.13c0.25,0.7,0.5,1.4,0.76,2.11c-0.9,0.32-1.78,0.64-2.67,0.96
				C20.97,357.17,19.57,353.24,18.15,349.28z M22.8,353.79c0.51-0.18,1.02-0.3,1.46-0.54c1.03-0.54,1.38-1.34,1.1-2.4
				c-0.17-0.65-0.57-1.12-1.26-1.26c-0.96-0.2-1.77,0.22-2.58,0.64C21.95,351.43,22.37,352.59,22.8,353.79z"/>
		</g>
		<path class="st16" d="M30.95,357.55c-0.07-0.65-0.13-1.27-0.19-1.89c-0.01-0.06,0-0.11-0.01-0.14c0.58-0.02,1.15-0.02,1.72-0.06
			c0.5-0.04,0.98-0.18,1.39-0.47c0.27-0.18,0.42-0.42,0.35-0.76c-0.07-0.34-0.3-0.54-0.64-0.57c-0.52-0.05-1.04-0.05-1.56-0.08
			c-0.65-0.03-1.28-0.16-1.85-0.48c-1.1-0.62-1.42-2.07-1.01-3.13c0.34-0.86,0.96-1.46,1.76-1.88c1-0.52,2.07-0.77,3.2-0.73
			c0.05,0,0.1,0.01,0.18,0.02c0.06,0.66,0.13,1.32,0.19,1.99c-0.41,0.01-0.8,0-1.19,0.03c-0.45,0.03-0.89,0.13-1.27,0.38
			c-0.11,0.08-0.22,0.17-0.3,0.29c-0.24,0.34-0.1,0.81,0.29,0.94c0.25,0.08,0.53,0.11,0.8,0.13c0.7,0.04,1.4,0.02,2.09,0.18
			c1.83,0.44,2.66,2.82,1.36,4.35c-0.5,0.59-1.12,1-1.82,1.29c-0.97,0.41-1.98,0.65-3.04,0.63c-0.1,0-0.2-0.01-0.3-0.02
			C31.07,357.58,31.02,357.56,30.95,357.55z"/>
	</g>
</g>
</svg>
